<svg width="59" height="59" viewBox="0 0 59 59" fill="none" xmlns="http://www.w3.org/2000/svg">
<circle cx="29.5" cy="29.5" r="29.5" fill="#E68713"/>
<path d="M10.8148 27.5027C10.8148 27.9597 10.7047 28.3882 10.4843 28.7881C10.2721 29.188 9.93343 29.5103 9.46823 29.7552C9.0112 30 8.43174 30.1224 7.72987 30.1224H6.29756V33.4033H4.58368V24.8584H7.72987C8.39094 24.8584 8.95407 24.9726 9.41926 25.2012C9.88446 25.4297 10.2313 25.7439 10.4598 26.1438C10.6965 26.5437 10.8148 26.9967 10.8148 27.5027ZM7.65642 28.7391C8.12978 28.7391 8.48071 28.633 8.70923 28.4208C8.93775 28.2004 9.05201 27.8944 9.05201 27.5027C9.05201 26.6702 8.58681 26.254 7.65642 26.254H6.29756V28.7391H7.65642ZM18.3363 29.8654C18.3363 30.1102 18.32 30.3306 18.2873 30.5264H13.3293C13.3701 31.0161 13.5415 31.3997 13.8435 31.6772C14.1455 31.9547 14.5168 32.0934 14.9575 32.0934C15.5941 32.0934 16.0471 31.82 16.3164 31.2732H18.1649C17.969 31.9261 17.5936 32.4647 17.0387 32.8891C16.4837 33.3054 15.8022 33.5135 14.9942 33.5135C14.3413 33.5135 13.7537 33.3706 13.2314 33.085C12.7172 32.7912 12.3132 32.379 12.0194 31.8486C11.7338 31.3181 11.591 30.706 11.591 30.0123C11.591 29.3104 11.7338 28.6942 12.0194 28.1637C12.3051 27.6332 12.705 27.2252 13.2192 26.9395C13.7333 26.6539 14.325 26.5111 14.9942 26.5111C15.639 26.5111 16.2144 26.6498 16.7204 26.9273C17.2345 27.2048 17.6303 27.6006 17.9078 28.1148C18.1935 28.6208 18.3363 29.2043 18.3363 29.8654ZM16.5612 29.3757C16.5531 28.935 16.3939 28.584 16.0838 28.3229C15.7736 28.0535 15.3941 27.9189 14.9453 27.9189C14.5209 27.9189 14.1618 28.0495 13.868 28.3106C13.5823 28.5636 13.4069 28.9186 13.3416 29.3757H16.5612ZM21.3012 27.674C21.5215 27.3149 21.8072 27.0334 22.1581 26.8293C22.5172 26.6253 22.9253 26.5233 23.3823 26.5233V28.3229H22.9293C22.3907 28.3229 21.9826 28.4494 21.7051 28.7024C21.4358 28.9554 21.3012 29.3961 21.3012 30.0245V33.4033H19.5873V26.6212H21.3012V27.674ZM27.132 33.5135C26.577 33.5135 26.0792 33.4155 25.6384 33.2197C25.1977 33.0156 24.8468 32.7422 24.5856 32.3994C24.3326 32.0567 24.1939 31.6772 24.1694 31.2609H25.8955C25.9282 31.5221 26.0547 31.7384 26.275 31.9098C26.5035 32.0812 26.7851 32.1669 27.1197 32.1669C27.4462 32.1669 27.6992 32.1016 27.8787 31.971C28.0664 31.8404 28.1603 31.6731 28.1603 31.4691C28.1603 31.2487 28.046 31.0855 27.8175 30.9794C27.5972 30.8651 27.2421 30.7427 26.7525 30.6121C26.2465 30.4897 25.8302 30.3632 25.5038 30.2326C25.1855 30.102 24.908 29.9021 24.6713 29.6328C24.4428 29.3634 24.3286 29.0003 24.3286 28.5432C24.3286 28.1678 24.4347 27.825 24.6468 27.5149C24.8672 27.2048 25.1773 26.9599 25.5772 26.7804C25.9853 26.6008 26.4627 26.5111 27.0096 26.5111C27.8175 26.5111 28.4623 26.7151 28.9438 27.1232C29.4253 27.5231 29.6905 28.0658 29.7395 28.7513H28.0991C28.0746 28.482 27.9603 28.2698 27.7563 28.1148C27.5604 27.9515 27.2952 27.8699 26.9606 27.8699C26.6505 27.8699 26.4097 27.927 26.2383 28.0413C26.0751 28.1556 25.9935 28.3147 25.9935 28.5187C25.9935 28.7473 26.1077 28.9227 26.3362 29.0451C26.5648 29.1594 26.9198 29.2777 27.4013 29.4002C27.891 29.5226 28.295 29.6491 28.6132 29.7797C28.9315 29.9102 29.2049 30.1143 29.4335 30.3918C29.6701 30.6611 29.7926 31.0202 29.8007 31.4691C29.8007 31.8608 29.6905 32.2117 29.4702 32.5219C29.258 32.832 28.9479 33.0768 28.5398 33.2564C28.1399 33.4278 27.6706 33.5135 27.132 33.5135ZM40.6094 26.6212L38.6262 33.4033H36.7777L35.5413 28.6656L34.3048 33.4033H32.444L30.4486 26.6212H32.187L33.3867 31.7873L34.6843 26.6212H36.4961L37.7693 31.7751L38.969 26.6212H40.6094ZM47.8414 29.8654C47.8414 30.1102 47.8251 30.3306 47.7924 30.5264H42.8344C42.8752 31.0161 43.0466 31.3997 43.3486 31.6772C43.6505 31.9547 44.0219 32.0934 44.4626 32.0934C45.0992 32.0934 45.5521 31.82 45.8215 31.2732H47.67C47.4741 31.9261 47.0987 32.4647 46.5437 32.8891C45.9888 33.3054 45.3073 33.5135 44.4993 33.5135C43.8464 33.5135 43.2588 33.3706 42.7365 33.085C42.2223 32.7912 41.8183 32.379 41.5245 31.8486C41.2389 31.3181 41.096 30.706 41.096 30.0123C41.096 29.3104 41.2389 28.6942 41.5245 28.1637C41.8102 27.6332 42.2101 27.2252 42.7242 26.9395C43.2384 26.6539 43.8301 26.5111 44.4993 26.5111C45.1441 26.5111 45.7194 26.6498 46.2254 26.9273C46.7396 27.2048 47.1354 27.6006 47.4129 28.1148C47.6986 28.6208 47.8414 29.2043 47.8414 29.8654ZM46.0663 29.3757C46.0581 28.935 45.899 28.584 45.5889 28.3229C45.2787 28.0535 44.8992 27.9189 44.4503 27.9189C44.026 27.9189 43.6669 28.0495 43.3731 28.3106C43.0874 28.5636 42.9119 28.9186 42.8467 29.3757H46.0663ZM50.8062 24.3442V33.4033H49.0924V24.3442H50.8062ZM54.2134 24.3442V33.4033H52.4995V24.3442H54.2134Z" fill="white"/>
</svg>
