<svg xmlns="http://www.w3.org/2000/svg" viewBox="0 0 52 52"><defs><style>.cls-1{fill:none;}.cls-2{stroke:#000;stroke-miterlimit:10;stroke-width:0.45px;}</style></defs><g id="Layer_2" data-name="Layer 2"><g id="Layer_1-2" data-name="Layer 1"><rect class="cls-1" width="52" height="52"/><path class="cls-2" d="M17,20.42l-1.48,2.47c-1.78,3-3.56,6-5.36,8.94a6.68,6.68,0,0,0-1,3.56c0,4.28,0,8.56,0,12.85v.48c0,.86-.29,1.28-.87,1.27s-.84-.43-.84-1.26q0-6.69,0-13.38a5.24,5.24,0,0,1,.13-1.54A13.73,13.73,0,0,1,8.67,31c2.69-4.58,5.44-9.12,8.16-13.69a2,2,0,0,0,.26-.94c0-3.52.07-7,0-10.55A3.62,3.62,0,0,1,20.88,2C26.24,2.07,31.6,2,37,2a3.45,3.45,0,0,1,3.75,3.77q0,4.82,0,9.64a3.2,3.2,0,0,1,0,.53A.84.84,0,0,1,39,15.87a4.64,4.64,0,0,1,0-.53c0-3.16,0-6.32,0-9.48,0-1.5-.62-2.12-2.1-2.12h-2v.88A1.72,1.72,0,0,1,33,6.49H24.79a1.75,1.75,0,0,1-1.88-1.87V3.79a26.26,26.26,0,0,0-2.81,0,1.55,1.55,0,0,0-1.28,1.57c0,.19,0,.39,0,.59V27.24c.21-.26.33-.39.43-.53,1.12-1.49,2.24-3,3.33-4.46a2.76,2.76,0,0,1,5,.8,6.65,6.65,0,0,1-1,5.85c-1,1.59-2,3.2-2.9,4.86a11.3,11.3,0,0,0-1.27,4.88v.54H37a1.77,1.77,0,0,0,2-2c0-.11,0-.22,0-.32a.84.84,0,0,1,.81-.89c.47,0,.76.24.86.77a3.5,3.5,0,0,1-3.39,4.15c-1.84,0-3.67,0-5.51,0H31.3c-.51,1.15-1,2.24-1.47,3.32a4,4,0,0,1-.52.87,3.8,3.8,0,0,0-.85,2.84q0,.61,0,1.23a.84.84,0,0,1-.85.85.86.86,0,0,1-.85-.86,7.49,7.49,0,0,1,1.33-5.42,6.73,6.73,0,0,0,1.27-2.79H22.28c-.14.52-.27,1.06-.44,1.58a10.06,10.06,0,0,1-2.69,4.24c-.47.44-1,.48-1.33.12s-.33-.88.14-1.36l.12-.11A8.71,8.71,0,0,0,20.51,41a7,7,0,0,0,.16-1.37,16.5,16.5,0,0,1,2.74-8.88c.59-.93,1.19-1.86,1.79-2.79a5,5,0,0,0,.92-3.79,2.75,2.75,0,0,0-.11-.41c-.17-.5-.36-1-1-1.09s-.85.34-1.14.73L14.36,36.08a2.68,2.68,0,0,1-.4.49.79.79,0,0,1-1.08,0,.78.78,0,0,1-.23-1,3.23,3.23,0,0,1,.33-.49c1.28-1.71,2.57-3.42,3.84-5.14a1.3,1.3,0,0,0,.27-.72c0-2.84,0-5.68,0-8.51a2,2,0,0,0,0-.25ZM24.65,4.74h8.49v-1H24.65Z"/><path class="cls-2" d="M39,30.61v-3.4a3.64,3.64,0,0,1-3.11-1.42,3.42,3.42,0,0,1-.67-2.31c.11-1.8,1.34-2.86,3.82-3.21,0-.32,0-.65,0-1a.85.85,0,0,1,1.69-.05c0,.33,0,.67,0,1.1h3a.86.86,0,0,1,.89.81.84.84,0,0,1-.87.89c-.87,0-1.74,0-2.61,0l-.31,0v3.4a3.5,3.5,0,0,1,3,1.33,3.37,3.37,0,0,1,.71,2.35c-.1,1.83-1.39,3-3.8,3.23,0,.3,0,.62,0,.93a.88.88,0,0,1-.84.93c-.5,0-.84-.36-.86-.95,0-.3,0-.6,0-1-1,0-1.87,0-2.77,0a1.56,1.56,0,0,1-.71-.18.76.76,0,0,1-.32-.94.79.79,0,0,1,.8-.58h3Zm0-8.53a1.64,1.64,0,0,0-1.81.68,1.78,1.78,0,0,0,0,1.92A1.69,1.69,0,0,0,39,25.4Zm1.76,8.51a1.74,1.74,0,0,0,1.88-.93,1.71,1.71,0,0,0-1.88-2.47Z"/><path class="cls-2" d="M28.91,16.59H23.14a2.58,2.58,0,1,1,0-5.14H34.73a2.57,2.57,0,1,1,0,5.14Zm0-3.43H25.15c-.73,0-1.46,0-2.19,0a.86.86,0,0,0-.88.82.88.88,0,0,0,.89.88c.14,0,.28,0,.42,0,3.14,0,6.27,0,9.41,0,.69,0,1.39,0,2.08,0a.85.85,0,0,0,.85-.85.87.87,0,0,0-.86-.86h-6Z"/></g></g></svg>