<svg width="16" height="14" viewBox="0 0 16 14" fill="none" xmlns="http://www.w3.org/2000/svg">
<g id="Group 9">
<path id="Vector" d="M0.344159 13.6918C0.123794 13.4945 -3.37976e-08 13.2268 -4.5997e-08 12.9477C-5.81963e-08 12.6686 0.123794 12.401 0.344159 12.2036L6.16269 6.99365L0.344159 1.78371C0.130039 1.5852 0.0115586 1.31933 0.0142368 1.04337C0.016915 0.767402 0.140537 0.503418 0.358477 0.308273C0.576417 0.113129 0.871237 0.00243851 1.17944 4.00028e-05C1.48764 -0.00235755 1.78456 0.103729 2.00626 0.295453L8.65584 6.24952C8.87621 6.44689 9 6.71456 9 6.99365C9 7.27273 8.87621 7.5404 8.65584 7.73777L2.00626 13.6918C1.78583 13.8892 1.4869 14 1.17521 14C0.86352 14 0.564591 13.8892 0.344159 13.6918Z" fill="#D13A49"/>
<path id="Vector_2" d="M7.34416 13.6918C7.12379 13.4945 7 13.2268 7 12.9477C7 12.6686 7.12379 12.401 7.34416 12.2036L13.1627 6.99365L7.34416 1.78371C7.13004 1.5852 7.01156 1.31933 7.01424 1.04337C7.01691 0.767402 7.14054 0.503418 7.35848 0.308273C7.57642 0.113129 7.87124 0.00243851 8.17944 4.00028e-05C8.48764 -0.00235755 8.78456 0.103729 9.00626 0.295453L15.6558 6.24952C15.8762 6.44689 16 6.71456 16 6.99365C16 7.27273 15.8762 7.5404 15.6558 7.73777L9.00626 13.6918C8.78583 13.8892 8.4869 14 8.17521 14C7.86352 14 7.56459 13.8892 7.34416 13.6918Z" fill="#D13A49"/>
</g>
</svg>
