<svg width="38" height="38" viewBox="0 0 38 38" fill="none" xmlns="http://www.w3.org/2000/svg">
<path d="M18.8603 37.7206C29.2765 37.7206 37.7206 29.2765 37.7206 18.8603C37.7206 8.44404 29.2765 0 18.8603 0C8.44404 0 0 8.44404 0 18.8603C0 29.2765 8.44404 37.7206 18.8603 37.7206Z" fill="#4467AD"/>
<path d="M20.3216 16.2907C20.6317 15.9415 20.886 15.5894 21.2045 15.2904C22.1824 14.3684 23.3392 13.9045 24.6916 13.9157C25.4348 13.9213 26.1668 13.9744 26.8821 14.1812C28.5195 14.6534 29.4695 15.7822 29.9249 17.3804C30.2658 18.5791 30.3273 19.8113 30.3301 21.0463C30.3357 23.6504 30.3217 26.2573 30.3273 28.8615C30.3273 29.1045 30.2602 29.1688 30.0199 29.1688C28.6788 29.1576 27.3348 29.1576 25.9936 29.1688C25.7561 29.1716 25.7058 29.099 25.7058 28.8754C25.7142 26.397 25.7142 23.9187 25.7058 21.4375C25.703 20.8172 25.6639 20.1941 25.4907 19.5906C25.1694 18.4785 24.373 17.9113 23.2079 17.9728C21.6152 18.0566 20.7882 18.8445 20.5842 20.4623C20.5367 20.8479 20.5116 21.2363 20.5144 21.6247C20.5171 24.036 20.5115 26.4473 20.5199 28.8587C20.5199 29.099 20.4613 29.1688 20.2154 29.1688C18.863 29.1576 17.5107 29.1576 16.1583 29.1688C15.9404 29.1716 15.8789 29.1129 15.8789 28.8922C15.8845 24.1198 15.8845 19.3447 15.8789 14.5723C15.8789 14.3348 15.9571 14.2818 16.1807 14.2818C17.4632 14.2901 18.7485 14.2929 20.031 14.2818C20.2685 14.279 20.3272 14.3572 20.3244 14.5807C20.3132 15.1479 20.3216 15.7179 20.3216 16.2907Z" fill="#FEFEFE"/>
<path d="M12.967 21.745C12.967 24.106 12.9642 26.467 12.9726 28.8281C12.9726 29.0907 12.9083 29.1689 12.6373 29.1661C11.2961 29.1522 9.95493 29.155 8.61095 29.1633C8.39581 29.1661 8.33154 29.1103 8.33154 28.8895C8.33713 24.1088 8.33713 19.3281 8.33154 14.5445C8.33154 14.3461 8.37906 14.2763 8.58861 14.2763C9.94935 14.2847 11.3101 14.2875 12.6708 14.2735C12.9335 14.2707 12.967 14.3713 12.967 14.5976C12.9642 16.9838 12.967 19.3644 12.967 21.745Z" fill="#FEFEFE"/>
<path d="M13.3361 9.54289C13.3388 11.0266 12.1346 12.2336 10.6537 12.2336C9.19237 12.2336 7.97973 11.0266 7.97414 9.56525C7.96855 8.08995 9.1812 6.87451 10.6593 6.87451C12.1262 6.87731 13.3361 8.08157 13.3361 9.54289Z" fill="#FEFEFE"/>
</svg>
