<?xml version="1.0" standalone="no"?>
<!DOCTYPE svg PUBLIC "-//W3C//DTD SVG 20010904//EN"
 "http://www.w3.org/TR/2001/REC-SVG-20010904/DTD/svg10.dtd">
<svg version="1.0" xmlns="http://www.w3.org/2000/svg"
 width="512.000000pt" height="512.000000pt" viewBox="0 0 512.000000 512.000000"
 preserveAspectRatio="xMidYMid meet">

<g transform="translate(0.000000,512.000000) scale(0.100000,-0.100000)"
fill="#000000" stroke="none">
<path d="M1202 5097 c-20 -21 -22 -34 -22 -125 l0 -102 -508 0 -509 0 -21 -23
-22 -23 0 -1016 0 -1017 26 -20 c26 -21 36 -21 530 -21 l504 0 0 -289 0 -290
26 -20 c24 -19 40 -21 149 -21 l123 0 -14 -47 c-16 -54 -114 -894 -114 -978 0
-81 18 -151 60 -241 47 -98 118 -176 299 -329 l130 -110 0 -192 1 -192 26 -20
c24 -19 40 -21 166 -21 134 0 140 1 163 25 32 31 32 69 0 100 -22 23 -32 25
-115 25 l-90 0 0 161 c0 88 -4 168 -10 178 -5 10 -83 82 -174 160 -230 198
-291 286 -302 428 -7 86 89 932 111 980 40 90 173 87 211 -4 11 -25 14 -108
14 -371 l0 -339 23 -21 c31 -29 72 -28 102 3 l25 24 0 1043 c0 808 3 1048 13
1067 29 58 117 83 168 48 56 -40 54 -20 59 -580 l5 -519 24 -19 c62 -50 121 1
121 105 0 30 4 66 10 80 30 81 192 89 240 12 7 -12 16 -65 19 -119 5 -82 9
-101 25 -113 47 -34 111 -6 122 54 15 83 57 122 131 122 92 0 143 -60 143
-166 0 -72 17 -94 72 -94 43 0 64 21 77 80 14 65 57 100 120 100 92 0 98 -11
175 -310 63 -244 76 -331 77 -500 0 -226 -4 -245 -161 -804 l-100 -356 0 -165
0 -165 -424 0 c-413 0 -424 0 -450 -21 -36 -28 -36 -80 0 -108 26 -21 36 -21
495 -21 257 0 475 3 484 6 38 15 45 55 45 258 l0 196 110 392 c61 216 120 445
131 508 23 131 27 364 9 495 -11 79 -42 223 -55 258 -7 15 2 17 89 17 90 0 99
2 121 25 l25 24 0 1121 0 1120 470 0 470 0 0 -760 0 -760 -349 0 -350 0 -20
-26 c-34 -43 -26 -86 20 -109 23 -12 95 -15 412 -15 374 0 385 1 411 21 l26
20 0 1018 0 1018 -23 21 -23 22 -522 0 -522 0 0 100 c0 94 -2 103 -25 125
l-24 25 -1319 0 -1319 0 -21 -23z m2558 -327 l0 -200 -1215 0 -1215 0 0 200 0
200 1215 0 1215 0 0 -200z m-2580 -125 l0 -75 -455 0 -455 0 0 75 0 75 455 0
455 0 0 -75z m3670 0 l0 -75 -470 0 -470 0 0 75 0 75 470 0 470 0 0 -75z
m-3675 -985 l0 -755 -452 -3 -453 -2 0 760 0 760 453 -2 452 -3 0 -755z m2585
-310 l0 -1070 -63 0 -64 0 -22 83 c-34 124 -80 183 -177 223 -56 23 -149 21
-208 -5 l-48 -21 -49 44 c-27 24 -70 51 -96 60 -62 21 -152 20 -212 -3 l-49
-18 -29 41 c-54 77 -191 128 -285 107 -25 -6 -52 -13 -61 -17 -16 -6 -17 16
-17 275 l0 281 352 0 c428 0 398 11 398 -142 0 -92 -2 -101 -25 -123 l-24 -25
-226 0 c-140 0 -234 -4 -246 -11 -48 -25 -44 -105 7 -128 16 -7 102 -11 243
-11 261 0 298 8 359 74 55 60 64 98 60 242 -3 114 -5 123 -33 169 -22 36 -45
57 -84 77 l-53 28 -368 0 -368 0 -31 54 c-51 91 -132 138 -237 138 -33 0 -77
-7 -96 -15 -54 -23 -118 -86 -144 -142 l-24 -50 0 -592 0 -593 -255 0 -255 0
0 1070 0 1070 1215 0 1215 0 0 -1070z"/>
<path d="M2059 4821 c-17 -13 -23 -29 -23 -56 0 -27 6 -43 23 -56 22 -18 49
-19 481 -19 448 0 458 0 484 21 19 15 26 30 26 54 0 24 -7 39 -26 54 -26 21
-36 21 -484 21 -432 0 -459 -1 -481 -19z"/>
<path d="M442 3997 c-27 -29 -28 -67 -3 -98 19 -24 20 -24 268 -27 241 -3 250
-2 276 18 34 27 37 80 7 110 -19 19 -33 20 -273 20 -252 0 -254 0 -275 -23z"/>
<path d="M445 3675 c-14 -13 -25 -36 -25 -50 0 -14 11 -37 25 -50 l24 -25 249
0 c236 0 249 1 270 20 14 14 22 33 22 55 0 22 -8 41 -22 55 -21 19 -34 20
-270 20 l-249 0 -24 -25z"/>
<path d="M1590 4250 c-19 -19 -20 -33 -20 -224 l0 -205 26 -20 c26 -20 38 -21
346 -21 l319 0 24 25 c25 24 25 25 25 218 0 181 -1 196 -21 221 l-20 26 -330
0 c-316 0 -330 -1 -349 -20z m570 -225 l0 -95 -220 0 -220 0 0 95 0 95 220 0
220 0 0 -95z"/>
<path d="M2555 4075 c-14 -13 -25 -36 -25 -50 0 -14 11 -37 25 -50 l24 -25
415 0 c287 0 423 3 440 11 51 23 55 103 7 128 -13 7 -163 11 -441 11 l-421 0
-24 -25z"/>
<path d="M4082 3997 c-27 -29 -28 -67 -3 -98 19 -24 20 -24 268 -27 241 -3
250 -2 276 18 34 27 37 80 7 110 -19 19 -33 20 -273 20 -252 0 -254 0 -275
-23z"/>
<path d="M4086 3679 c-34 -27 -35 -71 -1 -104 l24 -25 244 0 c232 0 246 1 271
21 34 27 36 77 3 107 -23 21 -30 22 -269 22 -233 0 -247 -1 -272 -21z"/>
</g>
</svg>
