<svg xmlns="http://www.w3.org/2000/svg" viewBox="0 0 52 52"><defs><style>.cls-1{fill:none;}</style></defs><g id="Layer_2" data-name="Layer 2"><g id="Layer_1-2" data-name="Layer 1"><rect class="cls-1" width="52" height="52"/><path d="M13.41,50c-.56-.12-1.12-.2-1.67-.36a7.5,7.5,0,0,1-5.68-7.18A25.56,25.56,0,0,1,7.72,31.62a10,10,0,0,1,4.44-5.37,8.71,8.71,0,0,1,4.35-1A3.34,3.34,0,0,1,18,25.7c.71.39,1.36.87,2.05,1.3a10.67,10.67,0,0,0,12,0c.55-.35,1.12-.68,1.64-1.07a4,4,0,0,1,3.15-.65,8.9,8.9,0,0,1,6.79,4.89,20.18,20.18,0,0,1,2.18,7.78A39.52,39.52,0,0,1,46,42.15a7.67,7.67,0,0,1-7.08,7.76,1.71,1.71,0,0,0-.3.09ZM26,47.19h0c4,0,7.93,0,11.89,0a5,5,0,0,0,5.28-5.43A35.9,35.9,0,0,0,43,38a17.1,17.1,0,0,0-1.78-6.41,6.17,6.17,0,0,0-4.48-3.49,2.08,2.08,0,0,0-1.8.35,13.08,13.08,0,0,1-1.32.87,13.28,13.28,0,0,1-13.73.82c-1.1-.54-2.1-1.28-3.16-1.92a1,1,0,0,0-.5-.2,5.68,5.68,0,0,0-4,1.64,9.1,9.1,0,0,0-2,3.19,24.08,24.08,0,0,0-1.38,9.44,4.68,4.68,0,0,0,2.35,4.12,6.5,6.5,0,0,0,3.38.78Z"/><path d="M26.8,2c.62.12,1.25.23,1.86.38a11.62,11.62,0,0,1,8.45,9.39,11.26,11.26,0,0,1-1.65,8,11.31,11.31,0,0,1-9,5.35,11.57,11.57,0,0,1-11.29-6.8A11.72,11.72,0,0,1,16.9,6.09a11.48,11.48,0,0,1,6.42-3.85c.44-.09.88-.16,1.32-.24Zm7.64,11.62a8.74,8.74,0,1,0-8.79,8.7A8.71,8.71,0,0,0,34.44,13.62Z"/></g></g></svg>