<svg xmlns="http://www.w3.org/2000/svg" viewBox="0 0 52 52"><defs><style>.cls-1{fill:none;}</style></defs><g id="Layer_2" data-name="Layer 2"><g id="Layer_1-2" data-name="Layer 1"><rect class="cls-1" width="52" height="52"/><path d="M26,44.74,28.68,42c.9-.9,1.81-1.79,2.7-2.71A4.24,4.24,0,0,1,34.61,38c3.21,0,6.42,0,9.63,0,2.06,0,3.1-1.05,3.1-3.13v-14c0-.94.43-1.49,1.19-1.55A1.3,1.3,0,0,1,50,20.75c0,1.63,0,3.25,0,4.88V35a5.35,5.35,0,0,1-5.61,5.63c-3.19,0-6.37,0-9.56,0a2.2,2.2,0,0,0-1.71.72c-1.66,1.7-3.35,3.37-5,5a2.68,2.68,0,0,1-4.16,0q-2.58-2.57-5.13-5.14a2,2,0,0,0-1.55-.65c-3.18,0-6.37,0-9.56,0A5.35,5.35,0,0,1,2,35V10.25A5.35,5.35,0,0,1,7.63,4.59H44.38A5.34,5.34,0,0,1,50,10.2c0,1.19,0,2.38,0,3.57a1.33,1.33,0,0,1-1.33,1.49c-.8,0-1.31-.56-1.32-1.49,0-1.17,0-2.34,0-3.51a2.73,2.73,0,0,0-3-3H7.63a2.71,2.71,0,0,0-3,2.95V35.06A2.7,2.7,0,0,0,7.59,38c3.19,0,6.37,0,9.56,0a4.67,4.67,0,0,1,3.62,1.5C22.46,41.23,24.2,42.93,26,44.74Z"/><path d="M13.28,23a6,6,0,0,1,0-8.83,6.08,6.08,0,0,1,8.23.14,5.93,5.93,0,0,1,0,8.55,28.72,28.72,0,0,1,2.86,2.53,7.12,7.12,0,0,1,1.73,5.81,3.57,3.57,0,0,1-.11.55,1.32,1.32,0,0,1-1.51.92,1.25,1.25,0,0,1-1.07-1.4c1-3.93-3.67-7.91-8.59-6a5.3,5.3,0,0,0-3.5,5.82,1.33,1.33,0,0,1-1.05,1.55,1.28,1.28,0,0,1-1.55-1.09,7.5,7.5,0,0,1,2.91-7.46C12.15,23.66,12.73,23.33,13.28,23Zm7.37-4.43a3.33,3.33,0,1,0-3.33,3.25A3.26,3.26,0,0,0,20.65,18.53Z"/><path d="M32.45,27.14c-1.68-1.68-3.35-3.32-5-5a1.27,1.27,0,0,1,0-1.81,1.32,1.32,0,0,1,1.86,0c.67.63,1.3,1.29,1.95,1.94.36.37.72.75,1.12,1.15,1.8-1.77,3.57-3.5,5.35-5.23l3.39-3.32a1.32,1.32,0,0,1,1.6-.29,1.19,1.19,0,0,1,.71,1.33,1.5,1.5,0,0,1-.37.77C39.57,20.17,36,23.64,32.45,27.14Z"/></g></g></svg>