<svg width="234" height="59" viewBox="0 0 234 59" fill="none" xmlns="http://www.w3.org/2000/svg">
<circle cx="29.5" cy="29.5" r="29.5" fill="#E68713"/>
<path d="M10.8148 27.5027C10.8148 27.9597 10.7047 28.3882 10.4843 28.7881C10.2721 29.188 9.93343 29.5103 9.46823 29.7552C9.0112 30 8.43174 30.1224 7.72987 30.1224H6.29756V33.4033H4.58368V24.8584H7.72987C8.39094 24.8584 8.95407 24.9726 9.41926 25.2012C9.88446 25.4297 10.2313 25.7439 10.4598 26.1438C10.6965 26.5437 10.8148 26.9967 10.8148 27.5027ZM7.65642 28.7391C8.12978 28.7391 8.48071 28.633 8.70923 28.4208C8.93775 28.2004 9.05201 27.8944 9.05201 27.5027C9.05201 26.6702 8.58681 26.254 7.65642 26.254H6.29756V28.7391H7.65642ZM18.3363 29.8654C18.3363 30.1102 18.32 30.3306 18.2873 30.5264H13.3293C13.3701 31.0161 13.5415 31.3997 13.8435 31.6772C14.1455 31.9547 14.5168 32.0934 14.9575 32.0934C15.5941 32.0934 16.0471 31.82 16.3164 31.2732H18.1649C17.969 31.9261 17.5936 32.4647 17.0387 32.8891C16.4837 33.3054 15.8022 33.5135 14.9942 33.5135C14.3413 33.5135 13.7537 33.3706 13.2314 33.085C12.7172 32.7912 12.3132 32.379 12.0194 31.8486C11.7338 31.3181 11.591 30.706 11.591 30.0123C11.591 29.3104 11.7338 28.6942 12.0194 28.1637C12.3051 27.6332 12.705 27.2252 13.2192 26.9395C13.7333 26.6539 14.325 26.5111 14.9942 26.5111C15.639 26.5111 16.2144 26.6498 16.7204 26.9273C17.2345 27.2048 17.6303 27.6006 17.9078 28.1148C18.1935 28.6208 18.3363 29.2043 18.3363 29.8654ZM16.5612 29.3757C16.5531 28.935 16.3939 28.584 16.0838 28.3229C15.7736 28.0535 15.3941 27.9189 14.9453 27.9189C14.5209 27.9189 14.1618 28.0495 13.868 28.3106C13.5823 28.5636 13.4069 28.9186 13.3416 29.3757H16.5612ZM21.3012 27.674C21.5215 27.3149 21.8072 27.0334 22.1581 26.8293C22.5172 26.6253 22.9253 26.5233 23.3823 26.5233V28.3229H22.9293C22.3907 28.3229 21.9826 28.4494 21.7051 28.7024C21.4358 28.9554 21.3012 29.3961 21.3012 30.0245V33.4033H19.5873V26.6212H21.3012V27.674ZM27.132 33.5135C26.577 33.5135 26.0792 33.4155 25.6384 33.2197C25.1977 33.0156 24.8468 32.7422 24.5856 32.3994C24.3326 32.0567 24.1939 31.6772 24.1694 31.2609H25.8955C25.9282 31.5221 26.0547 31.7384 26.275 31.9098C26.5035 32.0812 26.7851 32.1669 27.1197 32.1669C27.4462 32.1669 27.6992 32.1016 27.8787 31.971C28.0664 31.8404 28.1603 31.6731 28.1603 31.4691C28.1603 31.2487 28.046 31.0855 27.8175 30.9794C27.5972 30.8651 27.2421 30.7427 26.7525 30.6121C26.2465 30.4897 25.8302 30.3632 25.5038 30.2326C25.1855 30.102 24.908 29.9021 24.6713 29.6328C24.4428 29.3634 24.3286 29.0003 24.3286 28.5432C24.3286 28.1678 24.4347 27.825 24.6468 27.5149C24.8672 27.2048 25.1773 26.9599 25.5772 26.7804C25.9853 26.6008 26.4627 26.5111 27.0096 26.5111C27.8175 26.5111 28.4623 26.7151 28.9438 27.1232C29.4253 27.5231 29.6905 28.0658 29.7395 28.7513H28.0991C28.0746 28.482 27.9603 28.2698 27.7563 28.1148C27.5604 27.9515 27.2952 27.8699 26.9606 27.8699C26.6505 27.8699 26.4097 27.927 26.2383 28.0413C26.0751 28.1556 25.9935 28.3147 25.9935 28.5187C25.9935 28.7473 26.1077 28.9227 26.3362 29.0451C26.5648 29.1594 26.9198 29.2777 27.4013 29.4002C27.891 29.5226 28.295 29.6491 28.6132 29.7797C28.9315 29.9102 29.2049 30.1143 29.4335 30.3918C29.6701 30.6611 29.7926 31.0202 29.8007 31.4691C29.8007 31.8608 29.6905 32.2117 29.4702 32.5219C29.258 32.832 28.9479 33.0768 28.5398 33.2564C28.1399 33.4278 27.6706 33.5135 27.132 33.5135ZM40.6094 26.6212L38.6262 33.4033H36.7777L35.5413 28.6656L34.3048 33.4033H32.444L30.4486 26.6212H32.187L33.3867 31.7873L34.6843 26.6212H36.4961L37.7693 31.7751L38.969 26.6212H40.6094ZM47.8414 29.8654C47.8414 30.1102 47.8251 30.3306 47.7924 30.5264H42.8344C42.8752 31.0161 43.0466 31.3997 43.3486 31.6772C43.6505 31.9547 44.0219 32.0934 44.4626 32.0934C45.0992 32.0934 45.5521 31.82 45.8215 31.2732H47.67C47.4741 31.9261 47.0987 32.4647 46.5437 32.8891C45.9888 33.3054 45.3073 33.5135 44.4993 33.5135C43.8464 33.5135 43.2588 33.3706 42.7365 33.085C42.2223 32.7912 41.8183 32.379 41.5245 31.8486C41.2389 31.3181 41.096 30.706 41.096 30.0123C41.096 29.3104 41.2389 28.6942 41.5245 28.1637C41.8102 27.6332 42.2101 27.2252 42.7242 26.9395C43.2384 26.6539 43.8301 26.5111 44.4993 26.5111C45.1441 26.5111 45.7194 26.6498 46.2254 26.9273C46.7396 27.2048 47.1354 27.6006 47.4129 28.1148C47.6986 28.6208 47.8414 29.2043 47.8414 29.8654ZM46.0663 29.3757C46.0581 28.935 45.899 28.584 45.5889 28.3229C45.2787 28.0535 44.8992 27.9189 44.4503 27.9189C44.026 27.9189 43.6669 28.0495 43.3731 28.3106C43.0874 28.5636 42.9119 28.9186 42.8467 29.3757H46.0663ZM50.8062 24.3442V33.4033H49.0924V24.3442H50.8062ZM54.2134 24.3442V33.4033H52.4995V24.3442H54.2134Z" fill="white"/>
<path d="M76.3699 21.0142C76.3699 21.6236 76.223 22.1949 75.9292 22.7281C75.6462 23.2613 75.1946 23.6911 74.5744 24.0176C73.965 24.3441 73.1924 24.5073 72.2566 24.5073H70.3468V28.8817H68.0617V17.4885H72.2566C73.138 17.4885 73.8888 17.6409 74.5091 17.9456C75.1294 18.2503 75.5918 18.6692 75.8965 19.2024C76.2121 19.7356 76.3699 20.3396 76.3699 21.0142ZM72.1586 22.6628C72.7898 22.6628 73.2577 22.5214 73.5624 22.2384C73.8671 21.9446 74.0194 21.5366 74.0194 21.0142C74.0194 19.9043 73.3992 19.3493 72.1586 19.3493H70.3468V22.6628H72.1586ZM86.3985 24.1645C86.3985 24.491 86.3767 24.7848 86.3332 25.0459H79.7225C79.7769 25.6988 80.0054 26.2103 80.4081 26.5803C80.8107 26.9502 81.3058 27.1352 81.8934 27.1352C82.7422 27.1352 83.3461 26.7707 83.7052 26.0416H86.17C85.9088 26.9121 85.4082 27.6303 84.6683 28.1962C83.9283 28.7512 83.0197 29.0286 81.9424 29.0286C81.0719 29.0286 80.2884 28.8382 79.5919 28.4574C78.9064 28.0656 78.3677 27.5161 77.976 26.8088C77.5951 26.1015 77.4047 25.2853 77.4047 24.3604C77.4047 23.4245 77.5951 22.603 77.976 21.8957C78.3569 21.1883 78.8901 20.6443 79.5756 20.2634C80.2612 19.8825 81.0501 19.6921 81.9424 19.6921C82.8021 19.6921 83.5692 19.8771 84.2439 20.2471C84.9294 20.617 85.4572 21.1448 85.8272 21.8304C86.208 22.505 86.3985 23.2831 86.3985 24.1645ZM84.0317 23.5116C84.0208 22.924 83.8086 22.4561 83.3951 22.1079C82.9816 21.7488 82.4756 21.5692 81.8771 21.5692C81.3113 21.5692 80.8325 21.7433 80.4407 22.0915C80.0599 22.4289 79.8259 22.9022 79.7388 23.5116H84.0317ZM90.3516 21.2428C90.6454 20.764 91.0263 20.3885 91.4942 20.1165C91.973 19.8444 92.5171 19.7084 93.1265 19.7084V22.1079H92.5225C91.8043 22.1079 91.2602 22.2765 90.8903 22.6139C90.5312 22.9512 90.3516 23.5388 90.3516 24.3767V28.8817H88.0664V19.839H90.3516V21.2428ZM98.126 29.0286C97.3861 29.0286 96.7223 28.8981 96.1347 28.6369C95.5471 28.3649 95.0791 28.0003 94.7309 27.5433C94.3936 27.0863 94.2086 26.5803 94.176 26.0253H96.4774C96.521 26.3735 96.6896 26.6619 96.9834 26.8904C97.2881 27.1189 97.6636 27.2332 98.1097 27.2332C98.545 27.2332 98.8823 27.1461 99.1217 26.972C99.372 26.7979 99.4971 26.5748 99.4971 26.3028C99.4971 26.009 99.3448 25.7913 99.0401 25.6499C98.7463 25.4975 98.2729 25.3343 97.62 25.1602C96.9454 24.997 96.3904 24.8283 95.9551 24.6542C95.5307 24.4801 95.1608 24.2135 94.8452 23.8544C94.5405 23.4953 94.3882 23.011 94.3882 22.4017C94.3882 21.9011 94.5296 21.4441 94.8125 21.0306C95.1063 20.617 95.5199 20.2906 96.0531 20.0512C96.5971 19.8118 97.2337 19.6921 97.9628 19.6921C99.0401 19.6921 99.8998 19.9641 100.542 20.5082C101.184 21.0414 101.537 21.7651 101.603 22.6791H99.4155C99.3829 22.32 99.2305 22.0371 98.9585 21.8304C98.6973 21.6127 98.3437 21.5039 97.8975 21.5039C97.484 21.5039 97.163 21.5801 96.9345 21.7324C96.7168 21.8848 96.608 22.097 96.608 22.369C96.608 22.6737 96.7604 22.9077 97.0651 23.0709C97.3698 23.2232 97.8431 23.381 98.4851 23.5442C99.138 23.7075 99.6767 23.8761 100.101 24.0502C100.525 24.2244 100.89 24.4964 101.195 24.8664C101.51 25.2255 101.673 25.7043 101.684 26.3028C101.684 26.8251 101.537 27.293 101.244 27.7065C100.961 28.12 100.547 28.4465 100.003 28.6859C99.4699 28.9144 98.8442 29.0286 98.126 29.0286ZM116.096 19.839L113.452 28.8817H110.987L109.338 22.5649L107.69 28.8817H105.209L102.548 19.839H104.866L106.466 26.7272L108.196 19.839H110.612L112.309 26.7108L113.909 19.839H116.096ZM125.739 24.1645C125.739 24.491 125.717 24.7848 125.673 25.0459H119.063C119.117 25.6988 119.346 26.2103 119.748 26.5803C120.151 26.9502 120.646 27.1352 121.234 27.1352C122.082 27.1352 122.686 26.7707 123.045 26.0416H125.51C125.249 26.9121 124.748 27.6303 124.008 28.1962C123.268 28.7512 122.36 29.0286 121.282 29.0286C120.412 29.0286 119.628 28.8382 118.932 28.4574C118.246 28.0656 117.708 27.5161 117.316 26.8088C116.935 26.1015 116.745 25.2853 116.745 24.3604C116.745 23.4245 116.935 22.603 117.316 21.8957C117.697 21.1883 118.23 20.6443 118.916 20.2634C119.601 19.8825 120.39 19.6921 121.282 19.6921C122.142 19.6921 122.909 19.8771 123.584 20.2471C124.27 20.617 124.797 21.1448 125.167 21.8304C125.548 22.505 125.739 23.2831 125.739 24.1645ZM123.372 23.5116C123.361 22.924 123.149 22.4561 122.735 22.1079C122.322 21.7488 121.816 21.5692 121.217 21.5692C120.651 21.5692 120.173 21.7433 119.781 22.0915C119.4 22.4289 119.166 22.9022 119.079 23.5116H123.372ZM129.692 16.803V28.8817H127.407V16.803H129.692ZM134.235 16.803V28.8817H131.949V16.803H134.235Z" fill="#1F1F1F"/>
<path d="M68.2504 36.6889V43.3254H67.3839V36.6889H68.2504ZM72.2694 38.0124C72.9041 38.0124 73.4183 38.206 73.8118 38.5932C74.2054 38.974 74.4022 39.5263 74.4022 40.2499V43.3254H73.5452V40.3737C73.5452 39.8532 73.4151 39.4565 73.1549 39.1835C72.8946 38.9042 72.5391 38.7646 72.0884 38.7646C71.6314 38.7646 71.2664 38.9074 70.9935 39.193C70.7269 39.4787 70.5936 39.8945 70.5936 40.4404V43.3254H69.7271V38.1076H70.5936V38.8503C70.765 38.5837 70.9966 38.3774 71.2886 38.2314C71.587 38.0854 71.9139 38.0124 72.2694 38.0124ZM77.7599 42.5256L79.3786 38.1076H80.3022L78.2551 43.3254H77.2458L75.1986 38.1076H76.1318L77.7599 42.5256ZM85.9156 40.5165C85.9156 40.6816 85.9061 40.8561 85.887 41.0402H81.7166C81.7483 41.5544 81.9229 41.9575 82.2403 42.2494C82.564 42.5351 82.9544 42.6779 83.4114 42.6779C83.7859 42.6779 84.097 42.5922 84.3445 42.4208C84.5984 42.2431 84.7762 42.0082 84.8777 41.7162H85.8108C85.6712 42.2177 85.3919 42.6271 84.9729 42.9445C84.554 43.2556 84.0335 43.4111 83.4114 43.4111C82.9163 43.4111 82.472 43.3 82.0784 43.0778C81.6912 42.8556 81.3865 42.5414 81.1643 42.1352C80.9422 41.7226 80.8311 41.2465 80.8311 40.707C80.8311 40.1674 80.939 39.6945 81.1548 39.2882C81.3706 38.882 81.6721 38.571 82.0594 38.3551C82.4529 38.133 82.9036 38.0219 83.4114 38.0219C83.9065 38.0219 84.3445 38.1298 84.7254 38.3456C85.1062 38.5614 85.3982 38.8598 85.6014 39.2406C85.8108 39.6152 85.9156 40.0404 85.9156 40.5165ZM85.0206 40.3356C85.0206 40.0055 84.9476 39.7231 84.8016 39.4882C84.6556 39.247 84.4556 39.0661 84.2017 38.9455C83.9541 38.8185 83.678 38.755 83.3733 38.755C82.9353 38.755 82.5608 38.8947 82.2498 39.174C81.9451 39.4533 81.7705 39.8405 81.7261 40.3356H85.0206ZM88.9065 43.4111C88.5066 43.4111 88.1479 43.3444 87.8305 43.2111C87.5131 43.0715 87.2624 42.881 87.0783 42.6398C86.8942 42.3923 86.7927 42.1098 86.7736 41.7924H87.6687C87.694 42.0527 87.8147 42.2653 88.0305 42.4304C88.2526 42.5954 88.5415 42.6779 88.8969 42.6779C89.227 42.6779 89.4873 42.6049 89.6777 42.4589C89.8681 42.3129 89.9633 42.1288 89.9633 41.9067C89.9633 41.6782 89.8618 41.5099 89.6587 41.402C89.4555 41.2878 89.1413 41.1767 88.716 41.0688C88.3288 40.9672 88.0114 40.8656 87.7639 40.7641C87.5227 40.6562 87.3132 40.5007 87.1355 40.2975C86.9641 40.0881 86.8784 39.8151 86.8784 39.4787C86.8784 39.2121 86.9577 38.9677 87.1164 38.7455C87.2751 38.5233 87.5004 38.3488 87.7924 38.2218C88.0844 38.0885 88.4177 38.0219 88.7922 38.0219C89.3698 38.0219 89.8364 38.1679 90.1919 38.4599C90.5473 38.7519 90.7378 39.1518 90.7632 39.6596H89.8967C89.8777 39.3866 89.7666 39.1676 89.5634 39.0026C89.3667 38.8376 89.1001 38.755 88.7636 38.755C88.4526 38.755 88.205 38.8217 88.021 38.955C87.8369 39.0883 87.7448 39.2629 87.7448 39.4787C87.7448 39.6501 87.7988 39.7929 87.9067 39.9071C88.021 40.0151 88.1606 40.1039 88.3256 40.1737C88.497 40.2372 88.7319 40.3102 89.0302 40.3927C89.4048 40.4943 89.7094 40.5959 89.9443 40.6974C90.1792 40.7926 90.3791 40.9386 90.5442 41.1354C90.7155 41.3322 90.8044 41.5893 90.8108 41.9067C90.8108 42.1923 90.7314 42.4494 90.5727 42.6779C90.414 42.9064 90.1887 43.0873 89.8967 43.2206C89.6111 43.3476 89.281 43.4111 88.9065 43.4111ZM93.0908 38.8217V41.8971C93.0908 42.1511 93.1448 42.332 93.2527 42.4399C93.3606 42.5414 93.5478 42.5922 93.8144 42.5922H94.4524V43.3254H93.6716C93.1892 43.3254 92.8274 43.2143 92.5862 42.9921C92.3449 42.77 92.2243 42.405 92.2243 41.8971V38.8217H91.5483V38.1076H92.2243V36.7936H93.0908V38.1076H94.4524V38.8217H93.0908ZM98.4882 37.2602C98.3231 37.2602 98.1835 37.203 98.0692 37.0888C97.955 36.9745 97.8978 36.8349 97.8978 36.6698C97.8978 36.5048 97.955 36.3651 98.0692 36.2509C98.1835 36.1366 98.3231 36.0795 98.4882 36.0795C98.6469 36.0795 98.7802 36.1366 98.8881 36.2509C99.0023 36.3651 99.0595 36.5048 99.0595 36.6698C99.0595 36.8349 99.0023 36.9745 98.8881 37.0888C98.7802 37.203 98.6469 37.2602 98.4882 37.2602ZM98.9071 38.1076V43.3254H98.0407V38.1076H98.9071ZM102.926 38.0124C103.561 38.0124 104.075 38.206 104.469 38.5932C104.862 38.974 105.059 39.5263 105.059 40.2499V43.3254H104.202V40.3737C104.202 39.8532 104.072 39.4565 103.812 39.1835C103.551 38.9042 103.196 38.7646 102.745 38.7646C102.288 38.7646 101.923 38.9074 101.65 39.193C101.384 39.4787 101.25 39.8945 101.25 40.4404V43.3254H100.384V38.1076H101.25V38.8503C101.422 38.5837 101.653 38.3774 101.945 38.2314C102.244 38.0854 102.571 38.0124 102.926 38.0124ZM115.963 38.1076L114.335 43.3254H113.44L112.183 39.1835L110.927 43.3254H110.032L108.394 38.1076H109.279L110.479 42.4875L111.774 38.1076H112.659L113.926 42.497L115.107 38.1076H115.963ZM119.413 38.0124C119.807 38.0124 120.162 38.0981 120.48 38.2694C120.797 38.4345 121.045 38.6852 121.222 39.0216C121.406 39.3581 121.498 39.7675 121.498 40.2499V43.3254H120.642V40.3737C120.642 39.8532 120.511 39.4565 120.251 39.1835C119.991 38.9042 119.635 38.7646 119.185 38.7646C118.728 38.7646 118.363 38.9074 118.09 39.193C117.823 39.4787 117.69 39.8945 117.69 40.4404V43.3254H116.823V36.2794H117.69V38.8503C117.861 38.5837 118.096 38.3774 118.394 38.2314C118.699 38.0854 119.039 38.0124 119.413 38.0124ZM122.59 40.6974C122.59 40.1642 122.698 39.6977 122.914 39.2978C123.13 38.8915 123.425 38.5773 123.799 38.3551C124.18 38.133 124.602 38.0219 125.066 38.0219C125.523 38.0219 125.919 38.1203 126.256 38.317C126.592 38.5138 126.843 38.7614 127.008 39.0597V38.1076H127.884V43.3254H127.008V42.3542C126.837 42.6589 126.58 42.9128 126.237 43.1159C125.9 43.3127 125.507 43.4111 125.056 43.4111C124.593 43.4111 124.174 43.2968 123.799 43.0683C123.425 42.8398 123.13 42.5192 122.914 42.1066C122.698 41.694 122.59 41.2243 122.59 40.6974ZM127.008 40.707C127.008 40.3134 126.929 39.9706 126.77 39.6786C126.611 39.3866 126.396 39.1645 126.123 39.0121C125.856 38.8534 125.561 38.7741 125.237 38.7741C124.913 38.7741 124.618 38.8503 124.352 39.0026C124.085 39.1549 123.872 39.3771 123.714 39.6691C123.555 39.9611 123.476 40.3039 123.476 40.6974C123.476 41.0973 123.555 41.4465 123.714 41.7448C123.872 42.0368 124.085 42.2621 124.352 42.4208C124.618 42.5732 124.913 42.6493 125.237 42.6493C125.561 42.6493 125.856 42.5732 126.123 42.4208C126.396 42.2621 126.611 42.0368 126.77 41.7448C126.929 41.4465 127.008 41.1005 127.008 40.707ZM130.405 38.8217V41.8971C130.405 42.1511 130.459 42.332 130.567 42.4399C130.675 42.5414 130.862 42.5922 131.129 42.5922H131.767V43.3254H130.986C130.504 43.3254 130.142 43.2143 129.901 42.9921C129.659 42.77 129.539 42.405 129.539 41.8971V38.8217H128.863V38.1076H129.539V36.7936H130.405V38.1076H131.767V38.8217H130.405ZM141.63 38.0124C142.036 38.0124 142.398 38.0981 142.715 38.2694C143.033 38.4345 143.283 38.6852 143.467 39.0216C143.651 39.3581 143.744 39.7675 143.744 40.2499V43.3254H142.887V40.3737C142.887 39.8532 142.756 39.4565 142.496 39.1835C142.242 38.9042 141.896 38.7646 141.458 38.7646C141.008 38.7646 140.649 38.9106 140.382 39.2026C140.116 39.4882 139.983 39.904 139.983 40.4499V43.3254H139.126V40.3737C139.126 39.8532 138.995 39.4565 138.735 39.1835C138.481 38.9042 138.135 38.7646 137.697 38.7646C137.247 38.7646 136.888 38.9106 136.621 39.2026C136.355 39.4882 136.221 39.904 136.221 40.4499V43.3254H135.355V38.1076H136.221V38.8598C136.393 38.5868 136.621 38.3774 136.907 38.2314C137.199 38.0854 137.52 38.0124 137.869 38.0124C138.307 38.0124 138.694 38.1107 139.03 38.3075C139.367 38.5043 139.618 38.7931 139.783 39.174C139.929 38.8058 140.17 38.5202 140.506 38.317C140.843 38.1139 141.217 38.0124 141.63 38.0124ZM144.841 40.6974C144.841 40.1642 144.949 39.6977 145.165 39.2978C145.381 38.8915 145.676 38.5773 146.05 38.3551C146.431 38.133 146.853 38.0219 147.317 38.0219C147.774 38.0219 148.17 38.1203 148.507 38.317C148.843 38.5138 149.094 38.7614 149.259 39.0597V38.1076H150.135V43.3254H149.259V42.3542C149.088 42.6589 148.831 42.9128 148.488 43.1159C148.151 43.3127 147.758 43.4111 147.307 43.4111C146.844 43.4111 146.425 43.2968 146.05 43.0683C145.676 42.8398 145.381 42.5192 145.165 42.1066C144.949 41.694 144.841 41.2243 144.841 40.6974ZM149.259 40.707C149.259 40.3134 149.18 39.9706 149.021 39.6786C148.862 39.3866 148.647 39.1645 148.374 39.0121C148.107 38.8534 147.812 38.7741 147.488 38.7741C147.164 38.7741 146.869 38.8503 146.603 39.0026C146.336 39.1549 146.123 39.3771 145.965 39.6691C145.806 39.9611 145.727 40.3039 145.727 40.6974C145.727 41.0973 145.806 41.4465 145.965 41.7448C146.123 42.0368 146.336 42.2621 146.603 42.4208C146.869 42.5732 147.164 42.6493 147.488 42.6493C147.812 42.6493 148.107 42.5732 148.374 42.4208C148.647 42.2621 148.862 42.0368 149.021 41.7448C149.18 41.4465 149.259 41.1005 149.259 40.707ZM152.656 38.8217V41.8971C152.656 42.1511 152.71 42.332 152.818 42.4399C152.926 42.5414 153.113 42.5922 153.38 42.5922H154.018V43.3254H153.237C152.755 43.3254 152.393 43.2143 152.152 42.9921C151.91 42.77 151.79 42.405 151.79 41.8971V38.8217H151.114V38.1076H151.79V36.7936H152.656V38.1076H154.018V38.8217H152.656ZM156.124 38.8217V41.8971C156.124 42.1511 156.178 42.332 156.286 42.4399C156.394 42.5414 156.582 42.5922 156.848 42.5922H157.486V43.3254H156.705C156.223 43.3254 155.861 43.2143 155.62 42.9921C155.379 42.77 155.258 42.405 155.258 41.8971V38.8217H154.582V38.1076H155.258V36.7936H156.124V38.1076H157.486V38.8217H156.124ZM163.297 40.5165C163.297 40.6816 163.287 40.8561 163.268 41.0402H159.098C159.129 41.5544 159.304 41.9575 159.621 42.2494C159.945 42.5351 160.335 42.6779 160.792 42.6779C161.167 42.6779 161.478 42.5922 161.726 42.4208C161.98 42.2431 162.157 42.0082 162.259 41.7162H163.192C163.052 42.2177 162.773 42.6271 162.354 42.9445C161.935 43.2556 161.415 43.4111 160.792 43.4111C160.297 43.4111 159.853 43.3 159.459 43.0778C159.072 42.8556 158.768 42.5414 158.545 42.1352C158.323 41.7226 158.212 41.2465 158.212 40.707C158.212 40.1674 158.32 39.6945 158.536 39.2882C158.752 38.882 159.053 38.571 159.44 38.3551C159.834 38.133 160.285 38.0219 160.792 38.0219C161.288 38.0219 161.726 38.1298 162.106 38.3456C162.487 38.5614 162.779 38.8598 162.982 39.2406C163.192 39.6152 163.297 40.0404 163.297 40.5165ZM162.402 40.3356C162.402 40.0055 162.329 39.7231 162.183 39.4882C162.037 39.247 161.837 39.0661 161.583 38.9455C161.335 38.8185 161.059 38.755 160.754 38.755C160.316 38.755 159.942 38.8947 159.631 39.174C159.326 39.4533 159.152 39.8405 159.107 40.3356H162.402ZM165.307 38.955C165.459 38.6567 165.675 38.425 165.954 38.2599C166.24 38.0949 166.586 38.0124 166.992 38.0124V38.9074H166.764C165.792 38.9074 165.307 39.4342 165.307 40.488V43.3254H164.44V38.1076H165.307V38.955ZM169.84 43.4111C169.44 43.4111 169.081 43.3444 168.764 43.2111C168.446 43.0715 168.195 42.881 168.011 42.6398C167.827 42.3923 167.726 42.1098 167.707 41.7924H168.602C168.627 42.0527 168.748 42.2653 168.964 42.4304C169.186 42.5954 169.475 42.6779 169.83 42.6779C170.16 42.6779 170.42 42.6049 170.611 42.4589C170.801 42.3129 170.896 42.1288 170.896 41.9067C170.896 41.6782 170.795 41.5099 170.592 41.402C170.389 41.2878 170.074 41.1767 169.649 41.0688C169.262 40.9672 168.944 40.8656 168.697 40.7641C168.456 40.6562 168.246 40.5007 168.069 40.2975C167.897 40.0881 167.811 39.8151 167.811 39.4787C167.811 39.2121 167.891 38.9677 168.049 38.7455C168.208 38.5233 168.434 38.3488 168.726 38.2218C169.017 38.0885 169.351 38.0219 169.725 38.0219C170.303 38.0219 170.769 38.1679 171.125 38.4599C171.48 38.7519 171.671 39.1518 171.696 39.6596H170.83C170.811 39.3866 170.7 39.1676 170.497 39.0026C170.3 38.8376 170.033 38.755 169.697 38.755C169.386 38.755 169.138 38.8217 168.954 38.955C168.77 39.0883 168.678 39.2629 168.678 39.4787C168.678 39.6501 168.732 39.7929 168.84 39.9071C168.954 40.0151 169.094 40.1039 169.259 40.1737C169.43 40.2372 169.665 40.3102 169.963 40.3927C170.338 40.4943 170.643 40.5959 170.877 40.6974C171.112 40.7926 171.312 40.9386 171.477 41.1354C171.649 41.3322 171.737 41.5893 171.744 41.9067C171.744 42.1923 171.664 42.4494 171.506 42.6779C171.347 42.9064 171.122 43.0873 170.83 43.2206C170.544 43.3476 170.214 43.4111 169.84 43.4111ZM173.862 42.1257L172.796 44.687H172.215L172.91 42.1257H173.862ZM181.887 38.1076L178.745 45.7819H177.85L178.878 43.2682L176.774 38.1076H177.736L179.373 42.3351L180.992 38.1076H181.887ZM185.034 43.4111C184.545 43.4111 184.101 43.3 183.701 43.0778C183.307 42.8556 182.996 42.5414 182.768 42.1352C182.546 41.7226 182.434 41.2465 182.434 40.707C182.434 40.1737 182.549 39.704 182.777 39.2978C183.012 38.8852 183.329 38.571 183.729 38.3551C184.129 38.133 184.577 38.0219 185.072 38.0219C185.567 38.0219 186.015 38.133 186.414 38.3551C186.814 38.571 187.129 38.882 187.357 39.2882C187.592 39.6945 187.709 40.1674 187.709 40.707C187.709 41.2465 187.589 41.7226 187.348 42.1352C187.113 42.5414 186.792 42.8556 186.386 43.0778C185.98 43.3 185.529 43.4111 185.034 43.4111ZM185.034 42.6493C185.345 42.6493 185.637 42.5764 185.91 42.4304C186.183 42.2844 186.402 42.0654 186.567 41.7734C186.738 41.4814 186.824 41.1259 186.824 40.707C186.824 40.288 186.741 39.9325 186.576 39.6405C186.411 39.3485 186.195 39.1327 185.929 38.9931C185.662 38.8471 185.373 38.7741 185.062 38.7741C184.745 38.7741 184.453 38.8471 184.186 38.9931C183.926 39.1327 183.717 39.3485 183.558 39.6405C183.399 39.9325 183.32 40.288 183.32 40.707C183.32 41.1323 183.396 41.4909 183.548 41.7829C183.707 42.0749 183.917 42.2939 184.177 42.4399C184.437 42.5795 184.723 42.6493 185.034 42.6493ZM193.476 38.1076V43.3254H192.61V42.5541C192.445 42.8207 192.213 43.0302 191.915 43.1826C191.623 43.3286 191.299 43.4016 190.943 43.4016C190.537 43.4016 190.172 43.319 189.848 43.154C189.525 42.9826 189.268 42.7287 189.077 42.3923C188.893 42.0558 188.801 41.6464 188.801 41.164V38.1076H189.658V41.0497C189.658 41.5639 189.788 41.9606 190.048 42.2399C190.309 42.5129 190.664 42.6493 191.115 42.6493C191.578 42.6493 191.943 42.5065 192.21 42.2209C192.476 41.9352 192.61 41.5195 192.61 40.9736V38.1076H193.476ZM195.805 38.955C195.958 38.6567 196.174 38.425 196.453 38.2599C196.739 38.0949 197.085 38.0124 197.491 38.0124V38.9074H197.262C196.291 38.9074 195.805 39.4342 195.805 40.488V43.3254H194.939V38.1076H195.805V38.955ZM201.896 39.0693C202.067 38.7709 202.321 38.5233 202.658 38.3266C203 38.1234 203.397 38.0219 203.848 38.0219C204.311 38.0219 204.73 38.133 205.105 38.3551C205.486 38.5773 205.784 38.8915 206 39.2978C206.216 39.6977 206.323 40.1642 206.323 40.6974C206.323 41.2243 206.216 41.694 206 42.1066C205.784 42.5192 205.486 42.8398 205.105 43.0683C204.73 43.2968 204.311 43.4111 203.848 43.4111C203.404 43.4111 203.01 43.3127 202.667 43.1159C202.331 42.9128 202.074 42.662 201.896 42.3637V45.801H201.029V38.1076H201.896V39.0693ZM205.438 40.6974C205.438 40.3039 205.359 39.9611 205.2 39.6691C205.041 39.3771 204.825 39.1549 204.552 39.0026C204.286 38.8503 203.991 38.7741 203.667 38.7741C203.35 38.7741 203.054 38.8534 202.781 39.0121C202.515 39.1645 202.299 39.3898 202.134 39.6882C201.975 39.9801 201.896 40.3197 201.896 40.707C201.896 41.1005 201.975 41.4465 202.134 41.7448C202.299 42.0368 202.515 42.2621 202.781 42.4208C203.054 42.5732 203.35 42.6493 203.667 42.6493C203.991 42.6493 204.286 42.5732 204.552 42.4208C204.825 42.2621 205.041 42.0368 205.2 41.7448C205.359 41.4465 205.438 41.0973 205.438 40.6974ZM212.225 40.5165C212.225 40.6816 212.215 40.8561 212.196 41.0402H208.026C208.057 41.5544 208.232 41.9575 208.549 42.2494C208.873 42.5351 209.264 42.6779 209.721 42.6779C210.095 42.6779 210.406 42.5922 210.654 42.4208C210.908 42.2431 211.085 42.0082 211.187 41.7162H212.12C211.98 42.2177 211.701 42.6271 211.282 42.9445C210.863 43.2556 210.343 43.4111 209.721 43.4111C209.225 43.4111 208.781 43.3 208.388 43.0778C208 42.8556 207.696 42.5414 207.473 42.1352C207.251 41.7226 207.14 41.2465 207.14 40.707C207.14 40.1674 207.248 39.6945 207.464 39.2882C207.68 38.882 207.981 38.571 208.368 38.3551C208.762 38.133 209.213 38.0219 209.721 38.0219C210.216 38.0219 210.654 38.1298 211.035 38.3456C211.415 38.5614 211.707 38.8598 211.911 39.2406C212.12 39.6152 212.225 40.0404 212.225 40.5165ZM211.33 40.3356C211.33 40.0055 211.257 39.7231 211.111 39.4882C210.965 39.247 210.765 39.0661 210.511 38.9455C210.263 38.8185 209.987 38.755 209.682 38.755C209.244 38.755 208.87 38.8947 208.559 39.174C208.254 39.4533 208.08 39.8405 208.035 40.3356H211.33ZM215.644 43.4111C215.155 43.4111 214.711 43.3 214.311 43.0778C213.917 42.8556 213.606 42.5414 213.378 42.1352C213.156 41.7226 213.045 41.2465 213.045 40.707C213.045 40.1737 213.159 39.704 213.387 39.2978C213.622 38.8852 213.94 38.571 214.34 38.3551C214.74 38.133 215.187 38.0219 215.682 38.0219C216.177 38.0219 216.625 38.133 217.025 38.3551C217.425 38.571 217.739 38.882 217.967 39.2882C218.202 39.6945 218.32 40.1674 218.32 40.707C218.32 41.2465 218.199 41.7226 217.958 42.1352C217.723 42.5414 217.402 42.8556 216.996 43.0778C216.59 43.3 216.139 43.4111 215.644 43.4111ZM215.644 42.6493C215.955 42.6493 216.247 42.5764 216.52 42.4304C216.793 42.2844 217.012 42.0654 217.177 41.7734C217.348 41.4814 217.434 41.1259 217.434 40.707C217.434 40.288 217.352 39.9325 217.187 39.6405C217.022 39.3485 216.806 39.1327 216.539 38.9931C216.272 38.8471 215.984 38.7741 215.673 38.7741C215.355 38.7741 215.063 38.8471 214.797 38.9931C214.536 39.1327 214.327 39.3485 214.168 39.6405C214.01 39.9325 213.93 40.288 213.93 40.707C213.93 41.1323 214.006 41.4909 214.159 41.7829C214.317 42.0749 214.527 42.2939 214.787 42.4399C215.047 42.5795 215.333 42.6493 215.644 42.6493ZM220.325 39.0693C220.497 38.7709 220.751 38.5233 221.087 38.3266C221.43 38.1234 221.827 38.0219 222.277 38.0219C222.741 38.0219 223.16 38.133 223.534 38.3551C223.915 38.5773 224.213 38.8915 224.429 39.2978C224.645 39.6977 224.753 40.1642 224.753 40.6974C224.753 41.2243 224.645 41.694 224.429 42.1066C224.213 42.5192 223.915 42.8398 223.534 43.0683C223.16 43.2968 222.741 43.4111 222.277 43.4111C221.833 43.4111 221.439 43.3127 221.097 43.1159C220.76 42.9128 220.503 42.662 220.325 42.3637V45.801H219.459V38.1076H220.325V39.0693ZM223.867 40.6974C223.867 40.3039 223.788 39.9611 223.629 39.6691C223.471 39.3771 223.255 39.1549 222.982 39.0026C222.715 38.8503 222.42 38.7741 222.096 38.7741C221.779 38.7741 221.484 38.8534 221.211 39.0121C220.944 39.1645 220.728 39.3898 220.563 39.6882C220.405 39.9801 220.325 40.3197 220.325 40.707C220.325 41.1005 220.405 41.4465 220.563 41.7448C220.728 42.0368 220.944 42.2621 221.211 42.4208C221.484 42.5732 221.779 42.6493 222.096 42.6493C222.42 42.6493 222.715 42.5732 222.982 42.4208C223.255 42.2621 223.471 42.0368 223.629 41.7448C223.788 41.4465 223.867 41.0973 223.867 40.6974ZM226.76 36.2794V43.3254H225.893V36.2794H226.76ZM232.997 40.5165C232.997 40.6816 232.988 40.8561 232.969 41.0402H228.798C228.83 41.5544 229.005 41.9575 229.322 42.2494C229.646 42.5351 230.036 42.6779 230.493 42.6779C230.868 42.6779 231.179 42.5922 231.426 42.4208C231.68 42.2431 231.858 42.0082 231.959 41.7162H232.893C232.753 42.2177 232.474 42.6271 232.055 42.9445C231.636 43.2556 231.115 43.4111 230.493 43.4111C229.998 43.4111 229.554 43.3 229.16 43.0778C228.773 42.8556 228.468 42.5414 228.246 42.1352C228.024 41.7226 227.913 41.2465 227.913 40.707C227.913 40.1674 228.021 39.6945 228.237 39.2882C228.452 38.882 228.754 38.571 229.141 38.3551C229.535 38.133 229.985 38.0219 230.493 38.0219C230.988 38.0219 231.426 38.1298 231.807 38.3456C232.188 38.5614 232.48 38.8598 232.683 39.2406C232.893 39.6152 232.997 40.0404 232.997 40.5165ZM232.102 40.3356C232.102 40.0055 232.029 39.7231 231.883 39.4882C231.737 39.247 231.537 39.0661 231.283 38.9455C231.036 38.8185 230.76 38.755 230.455 38.755C230.017 38.755 229.643 38.8947 229.331 39.174C229.027 39.4533 228.852 39.8405 228.808 40.3356H232.102Z" fill="#1F1F1F"/>
</svg>
