<svg xmlns="http://www.w3.org/2000/svg" viewBox="0 0 52 52"><defs><style>.cls-1{fill:none;}.cls-2{stroke:#000;stroke-miterlimit:10;stroke-width:0.25px;}</style></defs><g id="Layer_2" data-name="Layer 2"><g id="Layer_1-2" data-name="Layer 1"><rect class="cls-1" width="52" height="52"/><path class="cls-2" d="M44.15,50H7.85a.79.79,0,0,0-.16-.08,5.34,5.34,0,0,1-4.53-5.25c-.07-3,0-6.06,0-9.09,0-5.08,0-10.16,0-15.24a1.79,1.79,0,0,1,.73-1.55C5.55,17.4,7.23,16,8.92,14.58a.83.83,0,0,0,.34-.71q0-3.12,0-6.24c0-1.14.37-1.5,1.52-1.5h7.91a1.23,1.23,0,0,0,.7-.26c.7-.55,1.39-1.11,2.05-1.7a7.71,7.71,0,0,1,4-2.16h1.12A6.36,6.36,0,0,1,29.7,3.43c.94.8,1.9,1.57,2.83,2.38a1.3,1.3,0,0,0,.88.33c2.6,0,5.21,0,7.81,0,1,0,1.43.41,1.43,1.41q0,3.12,0,6.23a.78.78,0,0,0,.31.68c1.68,1.39,3.34,2.82,5,4.18a2.17,2.17,0,0,1,.9,1.9c0,7.82,0,15.63,0,23.44,0,.29,0,.59,0,.89a5.34,5.34,0,0,1-3,4.55A12.19,12.19,0,0,1,44.15,50ZM5.34,22.18c0,.12,0,.2,0,.27v22a3.23,3.23,0,0,0,.69,2,3.42,3.42,0,0,0,3,1.29H43.3a3.28,3.28,0,0,0,3.38-3.46q0-10.91,0-21.8a2.94,2.94,0,0,0,0-.37l-.39.28L29.54,35a5.54,5.54,0,0,1-7.08,0L5.76,22.46ZM11.47,8.35c0,.14,0,.24,0,.33,0,5,0,10,0,15a.71.71,0,0,0,.39.63l12,8.92a3.37,3.37,0,0,0,4.46,0l11.82-8.8a.85.85,0,0,0,.4-.77c0-4.92,0-9.84,0-14.76V8.35Zm31.2,8.71v5.39l3.42-2.54Zm-33.44.1L5.92,19.89l3.31,2.47ZM29.38,6.1c-2.66-2.85-4.74-2.2-6.72,0Z"/><path d="M19.54,24.77a2.58,2.58,0,0,1-.68-.08,1.07,1.07,0,0,1,.1-2.05,2.81,2.81,0,0,1,.65-.05q6.41,0,12.8,0a3.13,3.13,0,0,1,.61,0,1,1,0,0,1,.84,1,1,1,0,0,1-.73,1.07,2.66,2.66,0,0,1-.69.08"/><path d="M22.13,19.28c-.95,0-1.9,0-2.85,0a1.09,1.09,0,1,1,0-2.18c1.93,0,3.86,0,5.79,0a1.08,1.08,0,0,1,1.14,1.11,1.06,1.06,0,0,1-1.12,1.07Z"/></g></g></svg>