<svg id="Layer_1" enable-background="new 0 0 26 26" height="512" viewBox="0 0 26 26" width="512" xmlns="http://www.w3.org/2000/svg"><g id="_x32_98"><path d="m1.3099365 4.8200684v14.7900391c0 2.1098633 1.7102051 3.8300781 3.8200684 3.8300781h7.0400391c-.8400879-1.2700195-1.2900391-2.7600098-1.2900391-4.3200684 0-4.3601074 3.5500488-7.9101563 7.9099121-7.9101563.631918 0 .8025379.0700684.9001465.0700684v-6.4599609c0-2.1101074-1.7199707-3.8300781-3.8200684-3.8300781h-10.7399902c-2.1098633-.0000001-3.8200684 1.7199706-3.8200684 3.8300781zm6.7399903 13.7800293h-2.0297852c-.5500488 0-1-.4499512-1-1 0-.5600586.4499512-1 1-1h2.0297852c.5500488 0 1 .4399414 1 1 0 .5500488-.4499512 1-1 1zm1.0600586-5.3901368h-3.0898438c-.5500488 0-1-.4399414-1-1 0-.5498047.4499512-1 1-1h3.0898438c.5500488 0 1 .4501953 1 1 0 .5600586-.4499512 1-1 1zm-3.0898438-7.3798828h8.9499512c.5500488 0 1 .4499512 1 1 0 .5600586-.4499512 1-1 1h-8.9499512c-.5500488 0-1-.4399414-1-1 0-.5500488.4499512-1 1-1z"/><path d="m18.789917 13.2099609c-3.2697754 0-5.9099121 2.630127-5.9099121 5.9101563 0 3.3671246 2.7631912 5.8898926 5.9099121 5.8898926 3.25 0 5.9001465-2.6398926 5.9001465-5.8898926 0-3.304163-2.6909676-5.9101563-5.9001465-5.9101563zm1.5600586 7.5800782c-.400629.400629-1.0191898.400732-1.4199219 0l-.9499512-.9499512c-.1901855-.1899414-.2900391-.4399414-.2900391-.7099609v-2.0200195c0-.5600586.4399414-1 1-1 .5500488 0 1 .4399414 1 1v1.6098633l.6599121.6601563c.3901368.3898924.3901368 1.0200194.0000001 1.409912z"/></g></svg>