<?xml version="1.0" standalone="no"?>
<!DOCTYPE svg PUBLIC "-//W3C//DTD SVG 20010904//EN"
 "http://www.w3.org/TR/2001/REC-SVG-20010904/DTD/svg10.dtd">
<svg version="1.0" xmlns="http://www.w3.org/2000/svg"
 width="512.000000pt" height="512.000000pt" viewBox="0 0 512.000000 512.000000"
 preserveAspectRatio="xMidYMid meet">

<g transform="translate(0.000000,512.000000) scale(0.100000,-0.100000)"
fill="#000000" stroke="none">
<path d="M2040 4716 c-278 -90 -512 -167 -520 -170 -45 -19 -45 -12 -48 -734
-2 -460 1 -696 8 -722 7 -27 20 -44 38 -54 31 -16 1024 -336 1042 -336 18 0
1011 320 1042 336 18 9 31 27 37 52 15 51 15 1353 1 1404 -6 21 -20 43 -31 49
-27 14 -1036 339 -1052 339 -6 -1 -239 -74 -517 -164z m880 -130 c194 -62 348
-116 344 -118 -5 -3 -165 -56 -356 -117 l-348 -112 -347 112 c-192 61 -352
114 -357 117 -8 4 675 230 701 231 6 1 170 -50 363 -113z m-846 -371 c214 -69
390 -125 392 -125 2 0 4 -265 4 -590 0 -324 -3 -590 -7 -590 -5 0 -188 58
-408 129 l-400 129 -3 592 c-2 560 -1 591 15 586 10 -3 193 -62 407 -131z
m1394 -456 l-3 -591 -400 -129 c-220 -71 -403 -129 -407 -129 -5 0 -8 265 -8
589 l0 590 83 25 c45 14 226 73 402 130 176 57 323 105 328 105 4 1 6 -265 5
-590z"/>
<path d="M293 4255 c-13 -9 -28 -25 -33 -36 -6 -10 -67 -374 -136 -807 -112
-705 -125 -796 -120 -871 11 -156 58 -308 136 -440 21 -36 178 -235 349 -441
171 -206 322 -397 336 -424 21 -43 25 -63 25 -142 0 -131 -5 -150 -51 -176
-44 -24 -62 -63 -49 -105 4 -15 43 -100 85 -188 42 -88 101 -210 130 -270 53
-110 75 -135 121 -135 27 0 1198 561 1223 586 17 16 25 34 25 56 -1 41 -254
575 -285 601 -29 23 -64 21 -126 -8 l-53 -24 0 42 c0 74 -29 235 -56 315 -51
151 -133 276 -257 392 -220 206 -207 189 -318 417 -55 114 -125 258 -155 319
-84 174 -193 267 -353 304 l-54 13 8 351 c7 343 7 352 -15 415 -39 115 -98
182 -205 232 -79 36 -143 45 -172 24z m156 -217 c67 -66 66 -61 63 -398 -2
-325 -8 -430 -23 -430 -5 0 -29 -9 -53 -20 -41 -20 -66 -52 -66 -86 0 -9 89
-203 198 -431 134 -283 204 -421 220 -431 55 -36 132 2 132 65 0 14 -76 187
-170 383 -93 196 -170 361 -170 365 0 17 131 -3 184 -29 91 -45 119 -86 260
-381 71 -148 148 -299 171 -335 42 -64 105 -131 218 -228 115 -99 203 -235
246 -377 24 -78 39 -220 33 -306 l-4 -56 -321 -153 c-177 -84 -327 -154 -333
-157 -7 -3 -11 25 -12 84 0 101 -22 175 -70 245 -16 24 -167 210 -336 413
-195 236 -319 394 -342 438 -50 94 -82 196 -95 296 -10 85 -9 94 105 814 64
401 116 733 116 738 0 17 16 9 49 -23z m1600 -2948 c48 -102 88 -186 87 -187
0 0 -228 -109 -506 -242 l-505 -240 -88 181 c-48 100 -86 186 -84 192 4 11
986 485 1000 482 4 0 47 -84 96 -186z"/>
<path d="M4727 4259 c-131 -31 -232 -125 -277 -260 -22 -63 -22 -71 -15 -415
l7 -351 -53 -13 c-160 -37 -269 -130 -353 -304 -30 -61 -100 -205 -155 -319
-111 -228 -98 -211 -318 -417 -124 -116 -206 -241 -257 -392 -27 -80 -56 -241
-56 -315 l0 -42 -52 24 c-63 29 -98 31 -127 8 -31 -26 -284 -560 -285 -601 0
-22 8 -40 25 -56 25 -25 1196 -586 1223 -586 46 0 68 25 121 135 29 60 88 182
130 270 42 88 81 173 85 188 13 42 -5 81 -49 105 -46 26 -51 45 -51 176 0 79
4 99 25 142 14 27 165 218 336 424 171 206 328 405 349 441 78 132 125 284
136 440 5 75 -8 166 -120 871 -69 433 -130 797 -136 807 -24 47 -60 57 -133
40z m-7 -198 c0 -5 52 -337 116 -738 114 -720 115 -729 105 -814 -13 -100 -45
-202 -95 -296 -23 -44 -147 -202 -342 -438 -169 -203 -320 -389 -336 -413 -48
-70 -70 -144 -70 -245 -1 -59 -5 -87 -12 -84 -6 3 -156 73 -333 157 l-321 153
-4 56 c-18 264 85 515 279 683 113 97 176 164 218 228 23 36 100 187 171 335
141 295 169 336 260 381 53 26 184 46 184 29 0 -4 -76 -169 -170 -365 -93
-196 -170 -369 -170 -383 0 -63 77 -101 132 -65 16 10 86 148 221 431 108 228
197 422 197 431 0 34 -25 66 -66 86 -24 11 -48 20 -53 20 -15 0 -21 105 -23
430 -3 337 -4 332 63 398 33 32 49 40 49 23z m-1050 -3021 c271 -129 494 -240
497 -246 2 -5 -36 -92 -84 -192 l-88 -181 -506 241 -507 241 75 156 c41 86 82
171 90 189 7 18 18 32 22 30 4 -2 230 -109 501 -238z"/>
</g>
</svg>
