<svg width="11" height="10" viewBox="0 0 11 10" fill="none" xmlns="http://www.w3.org/2000/svg">
<path fill-rule="evenodd" clip-rule="evenodd" d="M6.43227 0.212473C6.52464 0.135422 6.63129 0.0773296 6.74612 0.0415165C6.86096 0.00570328 6.98172 -0.0071284 7.10152 0.00375434C7.22131 0.0146371 7.33779 0.049021 7.44429 0.104941C7.55079 0.160861 7.64523 0.237221 7.7222 0.329656L10.7735 3.99163C10.8539 4.08351 10.9151 4.19053 10.9535 4.30641C10.9919 4.42228 11.0068 4.54467 10.9972 4.66636C10.9876 4.78806 10.9537 4.90661 10.8977 5.01503C10.8416 5.12346 10.7644 5.21958 10.6706 5.29773C10.5768 5.37588 10.4683 5.43448 10.3516 5.47009C10.2348 5.50571 10.1121 5.51761 9.99069 5.5051C9.86926 5.49259 9.75155 5.45592 9.6445 5.39725C9.53745 5.33858 9.44322 5.25909 9.36734 5.16346L6.31509 1.50149C6.15976 1.31499 6.08485 1.07444 6.10682 0.832721C6.1288 0.591005 6.24586 0.367907 6.43227 0.212473Z" fill="#3A7BFA"/>
<path fill-rule="evenodd" clip-rule="evenodd" d="M6.43227 8.94246C6.24586 8.78703 6.1288 8.56393 6.10682 8.32222C6.08485 8.0805 6.15976 7.83995 6.31509 7.65345L9.36734 3.99148C9.44322 3.89585 9.53745 3.81636 9.6445 3.75769C9.75155 3.69902 9.86926 3.66235 9.99069 3.64984C10.1121 3.63733 10.2348 3.64923 10.3516 3.68484C10.4683 3.72046 10.5768 3.77906 10.6706 3.85721C10.7644 3.93536 10.8416 4.03148 10.8977 4.1399C10.9537 4.24833 10.9876 4.36688 10.9972 4.48858C11.0068 4.61027 10.9919 4.73266 10.9535 4.84853C10.9151 4.96441 10.8539 5.07143 10.7735 5.16331L7.7222 8.82528C7.64523 8.91772 7.55079 8.99408 7.44429 9.05C7.33779 9.10592 7.22131 9.1403 7.10152 9.15118C6.98172 9.16207 6.86096 9.14923 6.74612 9.11342C6.63129 9.07761 6.52464 9.01952 6.43227 8.94246Z" fill="#3A7BFA"/>
<path fill-rule="evenodd" clip-rule="evenodd" d="M9.15479 4.5776C9.15479 4.82041 9.05833 5.05327 8.88664 5.22495C8.71495 5.39664 8.4821 5.4931 8.23929 5.4931L0.915346 5.4931C0.672543 5.4931 0.439684 5.39664 0.267995 5.22495C0.0963067 5.05327 -0.000146911 4.82041 -0.000146902 4.5776C-0.000146892 4.3348 0.0963068 4.10194 0.267995 3.93025C0.439684 3.75856 0.672543 3.66211 0.915346 3.66211L8.23929 3.66211C8.4821 3.66211 8.71495 3.75856 8.88664 3.93025C9.05833 4.10194 9.15479 4.3348 9.15479 4.5776Z" fill="#3A7BFA"/>
</svg>
