<svg width="46" height="51" viewBox="0 0 46 51" fill="none" xmlns="http://www.w3.org/2000/svg">
<path d="M44.8064 24.196L42.7768 23.3232V21.9354C42.8053 13.4179 37.431 5.81833 29.3906 3.00753V1.05169C29.3906 0.47114 28.9195 0 28.3393 0H17.0876C16.5074 0 16.0362 0.47114 16.0362 1.05169V3.01786C7.99584 5.82866 2.62156 13.4282 2.65007 21.9458V23.3442L0.641492 24.196C0.25232 24.3603 0 24.742 0 25.1636V30.6843C0 31.2645 0.47114 31.7357 1.05169 31.7357H2.41878V33.839C2.41878 34.4192 2.88956 34.8904 3.47011 34.8904H7.24529C7.60381 36.2069 8.13055 37.4731 8.81196 38.6549L6.14121 41.326C5.73315 41.7358 5.73315 42.3983 6.14121 42.8085L10.6103 47.2776C11.0201 47.6856 11.6826 47.6856 12.0928 47.2776L14.7636 44.6068C15.9425 45.2882 17.2044 45.8139 18.5177 46.1735V49.9487C18.5177 50.5289 18.9889 51 19.5694 51H25.8785C26.459 51 26.9302 50.5289 26.9302 49.9487V46.1735C28.2467 45.815 29.5125 45.2893 30.6947 44.6068L33.3658 47.2776C33.7756 47.6856 34.4381 47.6856 34.8483 47.2776L39.3174 42.8085C39.7254 42.3983 39.7254 41.7358 39.3174 41.326L36.6463 38.6549C37.3277 37.4731 37.8548 36.2069 38.2133 34.8904H41.9881C42.5687 34.8904 43.0398 34.4192 43.0398 33.839V31.7357H44.4069C44.9874 31.7357 45.4582 31.2645 45.4582 30.6843V25.1636C45.4561 24.7388 45.1988 24.3571 44.8064 24.196ZM18.1182 2.11371H27.2876V19.6849H18.1392L18.1182 2.11371ZM40.9471 32.7873H37.4456C36.941 32.7756 36.5002 33.1248 36.394 33.6177C36.0397 35.2646 35.3879 36.8323 34.4698 38.2447C34.1993 38.6602 34.2574 39.208 34.6063 39.559L37.1195 42.0722L34.112 45.0587L31.5988 42.5455C31.2478 42.1966 30.7 42.1385 30.2845 42.409C28.8721 43.3267 27.3044 43.9789 25.6575 44.3331C25.1643 44.4393 24.8154 44.8802 24.8268 45.3848V48.9283H20.6207V45.3531C20.6325 44.8485 20.2832 44.408 19.79 44.3018C18.1435 43.9482 16.5754 43.2964 15.1634 42.3773C14.7479 42.1071 14.2001 42.1649 13.8487 42.5141L11.3355 45.0274L8.3597 42.0512L10.8729 39.538C11.2222 39.1869 11.2799 38.6392 11.0098 38.2236C10.0832 36.8198 9.42066 35.2592 9.05394 33.6177C8.94738 33.1248 8.50689 32.7756 8.00225 32.7873H4.50078V31.7357H14.1117C14.688 36.4866 19.0067 39.8705 23.7576 39.2931C27.7156 38.8127 30.8354 35.6937 31.3151 31.7357H40.9368L40.9471 32.7873ZM16.2568 31.7357H29.2014C28.623 35.313 25.2537 37.7443 21.6767 37.1659C18.8859 36.7147 16.6977 34.5265 16.2465 31.7357H16.2568ZM43.3659 29.6326H2.09269V25.8575L4.12194 24.9847C4.51111 24.8207 4.76343 24.439 4.76343 24.0171V21.9141C4.74027 14.5701 9.21146 7.9602 16.0362 5.24704V20.7366C16.0362 21.3168 16.507 21.7879 17.0876 21.7879H28.36C28.9405 21.7879 29.4117 21.3168 29.4117 20.7366V5.24704C36.2478 7.95913 40.7244 14.5818 40.6948 21.9351V24.0385C40.6948 24.4601 40.9471 24.8418 41.3363 25.0057L43.3655 25.8785V29.6326H43.3659Z" fill="black"/>
</svg>
