<svg width="20" height="20" viewBox="0 0 20 20" fill="none" xmlns="http://www.w3.org/2000/svg">
<g clip-path="url(#clip0_211_584)">
<path d="M1.8959 19.8749C1.40556 19.9034 0.923326 19.7404 0.550889 19.4202C-0.18363 18.6813 -0.18363 17.488 0.550889 16.7491L16.6344 0.665488C17.3984 -0.0493789 18.5972 -0.00963983 19.3121 0.754324C19.9585 1.44517 19.9962 2.50703 19.4003 3.24192L3.22196 19.4202C2.85432 19.7358 2.37982 19.8985 1.8959 19.8749Z" fill="#D13A49"/>
<path d="M17.9609 19.8749C17.464 19.8728 16.9877 19.6755 16.6348 19.3256L0.551224 3.2419C-0.129269 2.44724 -0.0367524 1.25132 0.757905 0.570768C1.46716 -0.0366102 2.51316 -0.0366102 3.22235 0.570768L19.4007 16.6544C20.1644 17.3694 20.2039 18.5683 19.4889 19.3321C19.4604 19.3624 19.431 19.3918 19.4007 19.4203C19.0045 19.7648 18.4832 19.9294 17.9609 19.8749Z" fill="#D13A49"/>
</g>
<defs>
<clipPath id="clip0_211_584">
<rect width="20" height="20" fill="white"/>
</clipPath>
</defs>
</svg>
