<svg width="54" height="51" viewBox="0 0 54 51" fill="none" xmlns="http://www.w3.org/2000/svg">
<path d="M53.5495 42.0693C53.2978 40.8578 52.5856 39.8227 51.5439 39.1543C50.5023 38.4863 49.265 38.2706 48.0584 38.5465L42.4667 39.8268V37.5409C43.5882 36.4845 44.7559 35.1052 45.5863 33.8446C47.0426 31.634 48.0732 29.2065 48.6494 26.6308C49.3346 23.5665 49.3493 20.3225 48.6916 17.2483C48.5705 16.6826 48.0134 16.3216 47.4478 16.4432C46.8817 16.5639 46.5215 17.121 46.6423 17.687C47.2374 20.4673 47.2243 23.402 46.6042 26.1733C46.0836 28.5005 45.1521 30.6939 43.8362 32.6916C43.4461 33.2839 42.973 33.9052 42.4667 34.4986V22.8846C42.4667 22.3059 41.9977 21.8368 41.4189 21.8368H33.1304V10.6477C33.1304 10.0706 32.6634 9.60192 32.0863 9.59987L22.75 9.56836C22.7488 9.56836 22.7479 9.56836 22.7467 9.56836C22.4692 9.56836 22.2032 9.67805 22.0071 9.8741C21.8098 10.0706 21.6989 10.3374 21.6989 10.6161V16.4367H13.4092C12.8308 16.4367 12.3614 16.9057 12.3614 17.4844V27.8604H10.0268V26.4373C10.0268 25.8589 9.55774 25.3899 8.97901 25.3899H7.90421C7.72126 24.3826 7.61525 23.3594 7.59028 22.3378C7.52889 19.8538 7.92263 17.4235 8.76004 15.1134C8.95527 14.5748 9.1771 14.0378 9.41899 13.518C9.66334 12.9933 9.43577 12.37 8.91147 12.1256C8.38676 11.8821 7.76341 12.1088 7.51948 12.6335C7.25139 13.209 7.00582 13.8033 6.79012 14.3992C5.86349 16.9552 5.42801 19.6439 5.49513 22.3894C5.5201 23.393 5.61587 24.3973 5.77836 25.3899H1.04778C0.469046 25.3899 0 25.8589 0 26.4377V44.8549C0 45.4336 0.469046 45.9027 1.04778 45.9027H8.97901C9.55774 45.9027 10.0268 45.4336 10.0268 44.8549V43.8587H13.9683L29.9342 50.1208C31.4249 50.7057 32.9863 51 34.556 51C35.6025 51 36.6536 50.869 37.6887 50.6058L50.2027 47.4252C52.5782 46.8215 54.048 44.4689 53.5495 42.0693ZM40.3716 23.9324V40.3065L37.5704 40.9478C37.2691 41.0166 36.9646 41.071 36.6585 41.1136C35.4912 41.2744 34.3001 41.2405 33.1451 41.0117C33.1402 41.0104 33.1353 41.0096 33.1304 41.0084V39.4195C33.9293 38.2277 34.1941 36.7166 33.7754 35.3373C33.6588 34.9525 33.493 34.5813 33.2822 34.2387C33.2344 34.161 33.1844 34.0848 33.1324 34.0103C33.132 34.0091 33.1312 34.0083 33.1304 34.0071V23.932H40.3716V23.9324ZM23.7945 11.6676L31.0352 11.6918V32.3429L26.9886 30.6681L23.7945 29.3457V11.6676ZM14.4569 18.5322H21.6977V28.4776L20.3982 27.9398C20.2709 27.887 20.1346 27.8599 19.9975 27.8599H14.4569V18.5322ZM7.93122 43.8071H2.09557V27.485H7.03897C7.04102 27.485 7.04347 27.4854 7.04593 27.4854C7.04798 27.4854 7.04961 27.485 7.05166 27.485H7.93122V43.8071ZM49.6866 45.3943L37.1725 48.5749C35.0123 49.1238 32.7739 48.9834 30.6992 48.1701L14.549 41.8356C14.4271 41.7877 14.2973 41.7635 14.1663 41.7635H10.0268V29.9559H19.7888L26.5682 32.762L30.2781 34.2977C31.5906 34.842 32.2189 36.3818 31.6807 37.6927C31.5726 37.9559 31.4388 38.206 31.2612 38.429C30.6051 39.257 29.525 39.6221 28.5148 39.3765C28.5066 39.3745 28.4985 39.3725 28.4903 39.3704C28.4297 39.3553 28.3695 39.3377 28.3098 39.318L21.2598 36.6077C21.2025 36.5856 21.1722 36.5741 21.1722 36.5741C20.6323 36.3662 20.0262 36.6359 19.8182 37.1762C19.6107 37.7161 19.88 38.3226 20.4203 38.5301C20.4203 38.5301 24.3953 40.0584 27.4265 41.2274C27.4875 41.2511 27.5481 41.2732 27.6091 41.2937L29.9367 42.1888C30.6403 42.4593 31.3406 42.7286 32.0728 42.9157C33.3162 43.2333 34.6067 43.361 35.8886 43.291C36.6114 43.2517 37.333 43.1518 38.0386 42.9906L41.653 42.1634C41.6567 42.1626 41.6604 42.1609 41.6641 42.1601L48.5262 40.5893C49.1791 40.4399 49.8491 40.5565 50.4123 40.9179C50.9763 41.2797 51.3614 41.8401 51.4977 42.4957C51.7678 43.7944 50.9722 45.0677 49.6866 45.3943Z" fill="black"/>
<path d="M13.3991 7.45235C13.6496 7.45235 13.9009 7.36313 14.101 7.18222C15.9707 5.49349 18.2033 4.14652 20.5588 3.2866C23.1107 2.35505 25.9082 1.95763 28.6492 2.13772C30.611 2.26665 32.533 2.68535 34.3617 3.38196C34.902 3.58783 35.5077 3.31688 35.7136 2.7758C35.9199 2.23513 35.6485 1.62979 35.1074 1.42392C33.0839 0.652815 30.9572 0.189499 28.7868 0.0466567C25.7572 -0.152258 22.6634 0.287319 19.8401 1.31832C17.2341 2.26951 14.7641 3.75974 12.6967 5.62692C12.267 6.01492 12.2334 6.67757 12.6214 7.10691C12.8281 7.33611 13.113 7.45235 13.3991 7.45235Z" fill="black"/>
<path d="M37.1843 14.93C37.3828 15.1023 37.6276 15.1867 37.8711 15.1867C38.1637 15.1867 38.4551 15.0647 38.6626 14.8265L47.2831 4.90325C47.6629 4.46654 47.6163 3.80471 47.1796 3.4253C46.7424 3.04589 46.081 3.09214 45.7016 3.52885L37.0807 13.4521C36.7009 13.8888 36.7476 14.5506 37.1843 14.93Z" fill="black"/>
<path d="M44.9098 10.4502C43.4593 10.4502 42.2793 11.6302 42.2793 13.0807C42.2793 14.5312 43.4593 15.7112 44.9098 15.7112C46.3603 15.7112 47.5403 14.5308 47.5403 13.0807C47.5403 11.6302 46.3603 10.4502 44.9098 10.4502ZM44.9098 13.6156C44.6147 13.6156 44.3749 13.3758 44.3749 13.0807C44.3749 12.786 44.6147 12.5458 44.9098 12.5458C45.2045 12.5458 45.4447 12.786 45.4447 13.0807C45.4447 13.3758 45.2045 13.6156 44.9098 13.6156Z" fill="black"/>
<path d="M39.0914 8.11795C40.542 8.11795 41.722 6.93796 41.722 5.48744C41.722 4.03692 40.542 2.85693 39.0914 2.85693C37.6409 2.85693 36.4609 4.03692 36.4609 5.48744C36.4609 6.93796 37.6409 8.11795 39.0914 8.11795ZM39.0914 4.95209C39.3865 4.95209 39.6264 5.19234 39.6264 5.48744C39.6264 5.78213 39.3865 6.02238 39.0914 6.02238C38.7963 6.02238 38.5565 5.78213 38.5565 5.48744C38.5565 5.19234 38.7963 4.95209 39.0914 4.95209Z" fill="black"/>
<path d="M9.67399 9.91459C9.8418 10.3173 10.2548 10.5834 10.6923 10.5605C11.1249 10.5379 11.5039 10.2453 11.6378 9.83437C11.7728 9.41976 11.6255 8.94744 11.2788 8.68263C10.9256 8.41332 10.4295 8.39654 10.0595 8.64252C9.64902 8.91552 9.48449 9.45987 9.67399 9.91459Z" fill="black"/>
</svg>
