<svg width="509" height="164" viewBox="0 0 509 164" fill="none" xmlns="http://www.w3.org/2000/svg">
<path d="M14.2005 9.51998C17.6629 9.51998 20.6925 10.8184 23.2893 13.4152C26.0303 15.8677 27.4009 18.9695 27.4009 22.7204V147.8C27.4009 151.551 26.0303 154.724 23.2893 157.321C20.5482 159.774 17.3743 161 13.7677 161C9.72822 161 6.48222 159.774 4.02968 157.321C1.57715 154.724 0.350881 151.551 0.350881 147.8V22.7204C0.350881 18.9695 1.64928 15.8677 4.24608 13.4152C6.84288 10.8184 10.161 9.51998 14.2005 9.51998ZM110.066 9.51998C114.105 9.51998 117.351 10.8184 119.804 13.4152C122.256 15.8677 123.482 18.9695 123.482 22.7204V147.8C123.482 151.551 122.184 154.724 119.587 157.321C117.135 159.774 113.817 161 109.633 161C106.17 161 103.069 159.774 100.328 157.321C97.7309 154.724 96.4325 151.551 96.4325 147.8V22.7204C96.4325 18.9695 97.803 15.8677 100.544 13.4152C103.285 10.8184 106.459 9.51998 110.066 9.51998ZM13.5513 72.4924H110.066V97.3784H13.5513V72.4924ZM208.257 163.164C195.995 163.164 185.319 160.639 176.23 155.59C167.285 150.396 160.361 143.399 155.456 134.599C150.695 125.799 148.314 115.845 148.314 104.736C148.314 91.752 150.911 80.7156 156.105 71.6268C161.443 62.3937 168.367 55.3247 176.879 50.4196C185.391 45.5145 194.408 43.062 203.929 43.062C211.287 43.062 218.212 44.5768 224.704 47.6064C231.34 50.636 237.183 54.8197 242.232 60.1576C247.281 65.3512 251.249 71.4104 254.134 78.3352C257.164 85.26 258.678 92.6176 258.678 100.408C258.534 103.87 257.164 106.684 254.567 108.848C251.97 111.012 248.94 112.094 245.478 112.094H162.813L156.321 90.4536H235.74L230.979 94.7816V88.9388C230.691 84.7551 229.176 81.0041 226.435 77.686C223.838 74.3679 220.52 71.7711 216.48 69.8956C212.585 67.8759 208.401 66.866 203.929 66.866C199.601 66.866 195.562 67.4431 191.811 68.5972C188.06 69.7513 184.814 71.6989 182.073 74.44C179.332 77.1811 177.168 80.8599 175.581 85.4764C173.994 90.0929 173.2 95.9357 173.2 103.005C173.2 110.795 174.787 117.431 177.961 122.914C181.279 128.251 185.463 132.363 190.512 135.248C195.706 137.989 201.188 139.36 206.959 139.36C212.297 139.36 216.553 138.927 219.726 138.062C222.9 137.196 225.425 136.186 227.3 135.032C229.32 133.734 231.123 132.652 232.71 131.786C235.307 130.488 237.76 129.838 240.068 129.838C243.242 129.838 245.839 130.92 247.858 133.084C250.022 135.248 251.104 137.773 251.104 140.658C251.104 144.554 249.085 148.088 245.045 151.262C241.294 154.436 236.029 157.249 229.248 159.702C222.467 162.01 215.471 163.164 208.257 163.164ZM309.499 147.8C309.499 151.551 308.2 154.724 305.603 157.321C303.151 159.774 300.049 161 296.298 161C292.692 161 289.662 159.774 287.209 157.321C284.757 154.724 283.531 151.551 283.531 147.8V14.0644C283.531 10.3135 284.757 7.21172 287.209 4.75918C289.806 2.16239 292.98 0.863991 296.731 0.863991C300.482 0.863991 303.512 2.16239 305.82 4.75918C308.272 7.21172 309.499 10.3135 309.499 14.0644V147.8ZM367.825 147.8C367.825 151.551 366.527 154.724 363.93 157.321C361.477 159.774 358.376 161 354.625 161C351.018 161 347.988 159.774 345.536 157.321C343.083 154.724 341.857 151.551 341.857 147.8V14.0644C341.857 10.3135 343.083 7.21172 345.536 4.75918C348.133 2.16239 351.307 0.863991 355.058 0.863991C358.808 0.863991 361.838 2.16239 364.146 4.75918C366.599 7.21172 367.825 10.3135 367.825 14.0644V147.8ZM508.218 103.221C508.218 115.051 505.549 125.51 500.211 134.599C495.018 143.544 487.949 150.541 479.004 155.59C470.204 160.639 460.321 163.164 449.357 163.164C438.393 163.164 428.439 160.639 419.494 155.59C410.694 150.541 403.625 143.544 398.287 134.599C393.093 125.51 390.496 115.051 390.496 103.221C390.496 91.3913 393.093 81.0041 398.287 72.0596C403.625 62.9708 410.694 55.9017 419.494 50.8524C428.439 45.6588 438.393 43.062 449.357 43.062C460.321 43.062 470.204 45.6588 479.004 50.8524C487.949 55.9017 495.018 62.9708 500.211 72.0596C505.549 81.0041 508.218 91.3913 508.218 103.221ZM482.25 103.221C482.25 95.8636 480.735 89.5159 477.706 84.178C474.82 78.6959 470.853 74.44 465.804 71.4104C460.899 68.3808 455.416 66.866 449.357 66.866C443.298 66.866 437.744 68.3808 432.694 71.4104C427.789 74.44 423.822 78.6959 420.792 84.178C417.907 89.5159 416.464 95.8636 416.464 103.221C416.464 110.435 417.907 116.782 420.792 122.264C423.822 127.602 427.789 131.786 432.694 134.816C437.744 137.845 443.298 139.36 449.357 139.36C455.416 139.36 460.899 137.845 465.804 134.816C470.853 131.786 474.82 127.602 477.706 122.264C480.735 116.782 482.25 110.435 482.25 103.221Z" fill="black"/>
</svg>
