<svg width="51" height="51" viewBox="0 0 51 51" fill="none" xmlns="http://www.w3.org/2000/svg">
<g clip-path="url(#clip0_211_221)">
<path d="M48.45 16.15V6.86796C48.4518 6.28226 48.1492 5.73768 47.651 5.42976C47.1469 5.11544 46.5153 5.08708 45.985 5.35496L45.05 5.81991V1.69996C45.0496 1.13065 44.7643 0.599324 44.2899 0.284555C43.8156 -0.0302133 43.2151 -0.0866333 42.6904 0.134258C31.2043 4.94951 27.0164 8.42941 25.5 10.4388C23.9836 8.42941 19.7973 4.94951 8.31385 0.135958C7.78898 -0.0866825 7.18744 -0.0313868 6.71196 0.283212C6.23647 0.59781 5.95034 1.12982 5.95 1.69996V5.81991L5.00905 5.34901C4.48242 5.08622 3.85734 5.11452 3.35661 5.42382C2.85588 5.73312 2.55076 6.27941 2.55 6.86796V16.15C1.14167 16.15 0 17.2916 0 18.7V19.55C0.00221311 20.1793 0.238551 20.7853 0.663 21.25C0.238551 21.7146 0.00221311 22.3206 0 22.95V23.8C0.00221311 24.4293 0.238551 25.0353 0.663 25.5C0.238551 25.9646 0.00221311 26.5706 0 27.2V28.05C0.00221311 28.6793 0.238551 29.2853 0.663 29.75C0.238551 30.2146 0.00221311 30.8206 0 31.45V32.3C0 33.7083 1.14167 34.85 2.55 34.85V40.6725C2.54573 41.3154 2.90873 41.9045 3.485 42.1897L20.4807 50.6897C20.7192 50.8115 20.9831 50.8753 21.2509 50.8759C21.5032 50.8707 21.751 50.8085 21.9759 50.694C22.2613 50.8939 22.6015 51.0007 22.95 51H28.05C28.3979 50.9995 28.7371 50.8917 29.0216 50.6914C29.4888 50.9345 30.0452 50.9345 30.5125 50.6914L47.4954 42.1999C48.0814 41.9172 48.4527 41.323 48.45 40.6725V34.85C49.8583 34.85 51 33.7083 51 32.3V31.45C50.9978 30.8206 50.7615 30.2146 50.337 29.75C50.7615 29.2853 50.9978 28.6793 51 28.05V27.2C50.9978 26.5706 50.7615 25.9646 50.337 25.5C50.7615 25.0353 50.9978 24.4293 51 23.8V22.95C50.9978 22.3206 50.7615 21.7146 50.337 21.25C50.7615 20.7853 50.9978 20.1793 51 19.55V18.7C51 17.2916 49.8583 16.15 48.45 16.15ZM49.3 18.7V19.55C49.3 20.0194 48.9194 20.4 48.45 20.4H44.625C43.9208 20.4 43.35 19.8291 43.35 19.125C43.35 18.4208 43.9208 17.85 44.625 17.85H48.45C48.9194 17.85 49.3 18.2305 49.3 18.7ZM49.3 22.95V23.8C49.3 24.2694 48.9194 24.65 48.45 24.65H42.925C42.2208 24.65 41.65 24.0791 41.65 23.375C41.65 22.6708 42.2208 22.1 42.925 22.1H48.45C48.9194 22.1 49.3 22.4805 49.3 22.95ZM49.3 27.2V28.05C49.3 28.5194 48.9194 28.9 48.45 28.9H44.625C43.9208 28.9 43.35 28.3291 43.35 27.625C43.35 26.9208 43.9208 26.35 44.625 26.35H48.45C48.9194 26.35 49.3 26.7305 49.3 27.2ZM43.35 1.69996V6.66991L28.985 13.855C28.9748 13.8601 28.968 13.8686 28.9578 13.8737C28.6876 13.6974 28.3726 13.6024 28.05 13.6H26.35V12.3785C26.4172 12.1108 27.6531 8.28066 43.35 1.69996ZM7.65 1.69996C23.7907 8.46681 24.6406 12.325 24.65 12.325V13.6H22.95C22.627 13.6007 22.311 13.6942 22.0397 13.8694C22.0295 13.8643 22.0226 13.8558 22.0124 13.8507L7.65 6.66991V1.69996ZM1.7 18.7C1.7 18.2305 2.08056 17.85 2.55 17.85H6.375C7.07916 17.85 7.65 18.4208 7.65 19.125C7.65 19.8291 7.07916 20.4 6.375 20.4H2.55C2.08056 20.4 1.7 20.0194 1.7 19.55V18.7ZM7.65 27.625C7.65 28.3291 7.07916 28.9 6.375 28.9H2.55C2.08056 28.9 1.7 28.5194 1.7 28.05V27.2C1.7 26.7305 2.08056 26.35 2.55 26.35H6.375C7.07916 26.35 7.65 26.9208 7.65 27.625ZM8.075 24.65H2.55C2.08056 24.65 1.7 24.2694 1.7 23.8V22.95C1.7 22.4805 2.08056 22.1 2.55 22.1H8.075C8.77916 22.1 9.35 22.6708 9.35 23.375C9.35 24.0791 8.77916 24.65 8.075 24.65ZM1.7 32.3V31.45C1.7 30.9805 2.08056 30.6 2.55 30.6H5.525C6.22916 30.6 6.8 31.1708 6.8 31.875C6.8 32.5791 6.22916 33.15 5.525 33.15H2.55C2.08056 33.15 1.7 32.7694 1.7 32.3ZM4.25 40.6725V34.85H5.525C6.64094 34.8538 7.66453 34.2308 8.17362 33.2377C8.68271 32.2447 8.59105 31.0498 7.93645 30.1461C9.2933 29.327 9.75121 27.5764 8.9692 26.1978C10.2062 25.8142 11.0493 24.67 11.0493 23.375C11.0493 22.0799 10.2062 20.9357 8.9692 20.5521C9.21537 20.1165 9.34643 19.6253 9.35 19.125C9.35 18.3359 9.03656 17.5792 8.47864 17.0213C7.92072 16.4634 7.16402 16.15 6.375 16.15H4.25V6.87136L6.45065 7.97041L6.47955 7.98486L21.25 15.368V49.1691L4.25 40.6725ZM22.95 49.3V15.3H28.05V15.368V49.3H22.95ZM46.75 40.6691L29.75 49.1691V15.3705L44.5145 7.98996C44.5307 7.98316 44.5443 7.97466 44.5596 7.96701L46.75 6.86796V16.15H44.625C42.982 16.15 41.65 17.4819 41.65 19.125C41.6536 19.6253 41.7846 20.1165 42.0308 20.5521C40.7938 20.9357 39.9507 22.0799 39.9507 23.375C39.9507 24.67 40.7938 25.8142 42.0308 26.1978C41.2488 27.5764 41.7067 29.327 43.0635 30.1461C42.4089 31.0498 42.3173 32.2447 42.8264 33.2377C43.3355 34.2308 44.3591 34.8538 45.475 34.85H46.75V40.6691ZM49.3 32.3C49.3 32.7694 48.9194 33.15 48.45 33.15H45.475C44.7708 33.15 44.2 32.5791 44.2 31.875C44.2 31.1708 44.7708 30.6 45.475 30.6H48.45C48.9194 30.6 49.3 30.9805 49.3 31.45V32.3Z" fill="black"/>
</g>
<defs>
<clipPath id="clip0_211_221">
<rect width="51" height="51" fill="white"/>
</clipPath>
</defs>
</svg>
