<svg width="48" height="51" viewBox="0 0 48 51" fill="none" xmlns="http://www.w3.org/2000/svg">
<path d="M48 12.4534C48 10.1465 46.1253 8.26983 43.8206 8.26983C42.6374 8.26983 41.5681 8.76554 40.807 9.55931L24.4973 0.133364C24.1895 -0.0444547 23.8105 -0.0444547 23.5027 0.133364L7.1926 9.55931C6.43151 8.76554 5.36257 8.26983 4.17935 8.26983C1.87472 8.26983 0 10.1465 0 12.4534C0 14.4168 1.35852 16.0678 3.18427 16.516V35.3613C3.18427 35.7169 3.37396 36.0457 3.68181 36.2239L19.9864 45.6472C19.8784 46.0184 19.8193 46.4106 19.8193 46.8164C19.8193 49.123 21.694 51 23.9986 51C26.3029 51 28.1776 49.123 28.1776 46.8164C28.1776 46.411 28.1189 46.0195 28.0109 45.6483L44.3182 36.2239C44.626 36.0461 44.8157 35.7169 44.8157 35.3613V16.516C46.6415 16.0678 48 14.4168 48 12.4534ZM1.99017 12.4534C1.99017 11.2449 2.97204 10.262 4.17935 10.262C5.38628 10.262 6.36815 11.2449 6.36815 12.4534C6.36815 13.6616 5.38628 14.6448 4.17935 14.6448C2.97204 14.6448 1.99017 13.6616 1.99017 12.4534ZM23.9986 49.0078C22.7913 49.0078 21.8095 48.0249 21.8095 46.8164C21.8095 45.6082 22.7913 44.625 23.9986 44.625C25.2056 44.625 26.1878 45.6082 26.1878 46.8164C26.1878 48.0249 25.2056 49.0078 23.9986 49.0078ZM27.0142 43.9242C26.2527 43.1293 25.183 42.6328 23.9986 42.6328C22.815 42.6328 21.7453 43.1289 20.9842 43.9231L5.17444 34.7862V16.516C6.9998 16.0678 8.35832 14.4168 8.35832 12.4534C8.35832 12.0472 8.29924 11.6546 8.19079 11.2826L23.9998 2.14618L39.8092 11.2826C39.7008 11.6546 39.6417 12.0468 39.6417 12.4534C39.6417 14.4168 41.0002 16.0678 42.8256 16.516V34.7862L27.0142 43.9242ZM43.8206 14.6448C42.6137 14.6448 41.6315 13.6616 41.6315 12.4534C41.6315 11.2449 42.6137 10.262 43.8206 10.262C45.028 10.262 46.0098 11.2449 46.0098 12.4534C46.0098 13.6616 45.028 14.6448 43.8206 14.6448Z" fill="black"/>
<path d="M37.6447 15.4899L24.4976 7.8486C24.1895 7.66961 23.8101 7.66961 23.502 7.8486L10.3549 15.4899C10.0468 15.6693 9.85693 16.0003 9.85693 16.3583V31.6414C9.85693 31.9994 10.0468 32.3307 10.3549 32.5097L23.502 40.1514C23.6561 40.2407 23.8276 40.2858 23.9996 40.2858C24.1719 40.2858 24.3435 40.2407 24.4976 40.1514L37.6447 32.5097C37.9528 32.3307 38.1426 31.9994 38.1426 31.6414V16.3583C38.1426 16.0003 37.9528 15.6693 37.6447 15.4899ZM23.9996 9.87478L35.1547 16.3583L23.9996 22.8422L12.8449 16.3583L23.9996 9.87478ZM24.9956 37.5464V33.0244C24.9956 32.4705 24.5497 32.0217 23.9996 32.0217C23.4499 32.0217 23.004 32.4705 23.004 33.0244V37.5464L11.8489 31.0624V18.095L23.502 24.8684C23.6561 24.9577 23.8276 25.0027 23.9996 25.0027C24.1719 25.0027 24.3435 24.9577 24.4976 24.8684L36.1507 18.095V31.0624L24.9956 37.5464Z" fill="black"/>
<path d="M24.0007 27.4287C23.7745 27.4287 23.5543 27.543 23.394 27.7426C23.2348 27.9418 23.1431 28.2181 23.1431 28.5001C23.1431 28.7818 23.2348 29.058 23.394 29.2573C23.5543 29.4569 23.7745 29.5716 24.0007 29.5716C24.2259 29.5716 24.4471 29.4569 24.6064 29.2573C24.7657 29.058 24.8574 28.7818 24.8574 28.5001C24.8574 28.2181 24.7657 27.9418 24.6064 27.7426C24.4471 27.543 24.2259 27.4287 24.0007 27.4287Z" fill="black"/>
</svg>
