<svg width="25" height="34" viewBox="0 0 25 34" fill="none" xmlns="http://www.w3.org/2000/svg">
<path d="M12.5 0C15.8152 0 18.9946 1.31326 21.3388 3.65089C23.683 5.98851 25 9.15901 25 12.4649C25 19.0487 13.8636 32.9754 13.3864 33.5759C13.2799 33.7083 13.145 33.8151 12.9915 33.8885C12.8381 33.9619 12.6702 34 12.5 34C12.3298 34 12.1619 33.9619 12.0085 33.8885C11.855 33.8151 11.7201 33.7083 11.6136 33.5759C11.1364 32.9754 0 19.0487 0 12.4649C0 9.15901 1.31696 5.98851 3.66117 3.65089C6.00537 1.31326 9.18479 0 12.5 0ZM12.5 15.8644C13.399 15.8644 14.2778 15.5986 15.0253 15.1005C15.7728 14.6025 16.3554 13.8946 16.6995 13.0663C17.0435 12.2381 17.1335 11.3267 16.9581 10.4475C16.7827 9.5682 16.3498 8.76055 15.7141 8.12664C15.0784 7.49273 14.2685 7.06103 13.3868 6.88614C12.505 6.71124 11.5911 6.80101 10.7605 7.14407C9.92996 7.48714 9.22005 8.06811 8.72059 8.81351C8.22113 9.55891 7.95455 10.4353 7.95455 11.3317C7.95455 12.5339 8.43344 13.6868 9.28588 14.5368C10.1383 15.3869 11.2945 15.8644 12.5 15.8644Z" fill="white"/>
</svg>
